SplineFontDB: 3.2
FontName: Heathkit-H19
FullName: Heathkit-H19 Regular
FamilyName: Heathkit-H19 Regular
Weight: Medium
Copyright: Copyright (c) 2024, Stewart Russell - CC-BY-SA\nBased on Heathkit H19/H89 font ROM "2716_444-29_h19font.bin" from \nhttps://heathkit.garlanger.com/emulator/mame/
UComments: "2024-5-10: Created with FontForge (http://fontforge.org)"
Version: 1.0
ItalicAngle: 0
UnderlinePosition: -100
UnderlineWidth: 40
Ascent: 819
Descent: 204
InvalidEm: 0
LayerCount: 2
Layer: 0 0 "Back" 1
Layer: 1 0 "Fore" 0
FSType: 0
OS2Version: 0
OS2_WeightWidthSlopeOnly: 0
OS2_UseTypoMetrics: 0
CreationTime: 1715387600
ModificationTime: 1715392020
PfmFamily: 49
TTFWeight: 500
TTFWidth: 5
LineGap: 72
VLineGap: 0
Panose: 2 0 6 4 0 0 0 0 0 0
OS2TypoAscent: 0
OS2TypoAOffset: 1
OS2TypoDescent: 0
OS2TypoDOffset: 1
OS2TypoLinegap: 0
OS2WinAscent: 0
OS2WinAOffset: 1
OS2WinDescent: 0
OS2WinDOffset: 1
HheadAscent: 0
HheadAOffset: 1
HheadDescent: 0
HheadDOffset: 1
OS2Vendor: 'PfEd'
MarkAttachClasses: 1
DEI: 91125
LangName: 1033
DesignSize: 120
Encoding: UnicodeFull
Compacted: 1
UnicodeInterp: none
NameList: AGL For New Fonts
DisplaySize: -48
AntiAlias: 0
FitToEm: 1
WinInfo: 0 32 8
BeginPrivate: 0
EndPrivate
TeXData: 1 12582912 0 346030 173015 115343 0 1048576 115343 783286 444596 497025 792723 393216 433062 380633 303038 157286 324010 404750 52429 2506097 1059062 262144
BeginChars: 1114112 160

StartChar: C0021
Encoding: 33 33 1
Width: 512
Flags: W
VStem: 256 64
LayerCount: 2
Fore
SplineSet
256 102.199974 m 1
 256 -0.200027 l 1
 320 -0.200027 l 1
 320 102.199974 l 1
 256 102.199974 l 1
320 204.599976 m 1
 320 716.599976 l 1
 256 716.599976 l 1
 256 204.599976 l 1
 320 204.599976 l 1
EndSplineSet
EndChar

StartChar: C0022
Encoding: 34 34 2
Width: 512
Flags: W
HStem: 409.4 307.2
LayerCount: 2
Fore
SplineSet
384 409.399963 m 1
 384 716.599976 l 1
 320 716.599976 l 1
 320 409.399963 l 1
 384 409.399963 l 1
256 409.399963 m 1
 256 716.599976 l 1
 192 716.599976 l 1
 192 409.399963 l 1
 256 409.399963 l 1
EndSplineSet
EndChar

StartChar: C0023
Encoding: 35 35 3
Width: 512
Flags: W
HStem: 511.8 21G<256 320>
VStem: 128 320
LayerCount: 2
Fore
SplineSet
128 306.999969 m 1
 128 204.599976 l 1
 192 204.599976 l 1
 192 136.333308333 192 68.0666406667 192 -0.200027 c 1
 256 -0.200027 l 1
 256 68.0666406667 256 136.333308333 256 204.599976 c 1
 320 204.599976 l 1
 320 136.333308333 320 68.0666406667 320 -0.200027 c 1
 384 -0.200027 l 1
 384 68.0666406667 384 136.333308333 384 204.599976 c 1
 448 204.599976 l 1
 448 306.999969 l 1
 384 306.999969 l 1
 384 409.399963 l 1
 448 409.399963 l 1
 448 511.799957 l 1
 384 511.799957 l 1
 384 580.06663 384 648.333303 384 716.599976 c 1
 320 716.599976 l 1
 320 648.333303 320 580.06663 320 511.799957 c 1
 256 511.799957 l 1
 256 580.06663 256 648.333303 256 716.599976 c 1
 192 716.599976 l 1
 192 648.333303 192 580.06663 192 511.799957 c 1
 128 511.799957 l 1
 128 409.399963 l 1
 192 409.399963 l 1
 192 306.999969 l 1
 128 306.999969 l 1
320 306.999969 m 1
 256 306.999969 l 1
 256 409.399963 l 1
 320 409.399963 l 1
 320 306.999969 l 1
EndSplineSet
EndChar

StartChar: C0024
Encoding: 36 36 4
Width: 512
Flags: W
HStem: 491.8 20G<192 256>
LayerCount: 2
Fore
SplineSet
128 204.599976 m 1
 128 102.199974 l 1
 170.666666667 102.199974 213.333333333 102.199974 256 102.199974 c 1
 256 -0.200027 l 1
 320 -0.200027 l 1
 320 102.199974 l 1
 384 102.199974 l 1
 384 204.599976 l 1
 320 204.599976 l 1
 320 306.999969 l 1
 384 306.999969 l 1
 384 204.599976 l 1
 448 204.599976 l 1
 448 306.999969 l 1
 384 306.999969 l 1
 384 409.399963 l 1
 320 409.399963 l 1
 320 511.799957 l 1
 362.666666667 511.799957 405.333333333 511.799957 448 511.799957 c 1
 448 614.199951 l 1
 405.333333333 614.199951 362.666666667 614.199951 320 614.199951 c 1
 320 716.599976 l 1
 256 716.599976 l 1
 256 614.199951 l 1
 192 614.199951 l 1
 192 511.799957 l 1
 128 511.799957 l 1
 128 409.399963 l 1
 192 409.399963 l 1
 192 306.999969 l 1
 256 306.999969 l 1
 256 204.599976 l 1
 213.333333333 204.599976 170.666666667 204.599976 128 204.599976 c 1
256 409.399963 m 1
 192 409.399963 l 1
 192 511.799957 l 1
 256 511.799957 l 1
 256 409.399963 l 1
EndSplineSet
EndChar

StartChar: C0025
Encoding: 37 37 5
Width: 512
Flags: W
LayerCount: 2
Fore
SplineSet
128 204.599976 m 1
 128 102.199974 l 1
 192 102.199974 l 1
 192 204.599976 l 1
 128 204.599976 l 1
384 -0.200027 m 1
 448 -0.200027 l 1
 448 68.0666406667 448 136.333308333 448 204.599976 c 1
 405.333333333 204.599976 362.666666667 204.599976 320 204.599976 c 1
 320 136.333308333 320 68.0666406667 320 -0.200027 c 1
 384 -0.200027 l 1
192 204.599976 m 1
 256 204.599976 l 1
 256 306.999969 l 1
 192 306.999969 l 1
 192 204.599976 l 1
256 306.999969 m 1
 320 306.999969 l 1
 320 409.399963 l 1
 256 409.399963 l 1
 256 306.999969 l 1
320 409.399963 m 1
 384 409.399963 l 1
 384 511.799957 l 1
 320 511.799957 l 1
 320 409.399963 l 1
384 511.799957 m 1
 448 511.799957 l 1
 448 614.199951 l 1
 384 614.199951 l 1
 384 511.799957 l 1
128 511.799957 m 1
 170.666666667 511.799957 213.333333333 511.799957 256 511.799957 c 1
 256 580.06663 256 648.333303 256 716.599976 c 1
 213.333333333 716.599976 170.666666667 716.599976 128 716.599976 c 1
 128 648.333303 128 580.06663 128 511.799957 c 1
EndSplineSet
EndChar

StartChar: C0026
Encoding: 38 38 6
Width: 512
Flags: W
LayerCount: 2
Fore
SplineSet
320 102.199974 m 1
 277.333333333 102.199974 234.666666667 102.199974 192 102.199974 c 1
 192 -0.200027 l 1
 256 -0.200027 l 1
 320 -0.200027 l 1
 320 102.199974 l 1
384 102.199974 m 1
 384 -0.200027 l 1
 448 -0.200027 l 1
 448 102.199974 l 1
 384 102.199974 l 1
384 102.199974 m 1
 384 204.599976 l 1
 320 204.599976 l 1
 320 102.199974 l 1
 384 102.199974 l 1
192 102.199974 m 1
 192 170.466639 192 238.733304 192 306.999969 c 1
 128 306.999969 l 1
 128 238.733304 128 170.466639 128 102.199974 c 1
 192 102.199974 l 1
384 204.599976 m 1
 448 204.599976 l 1
 448 306.999969 l 1
 384 306.999969 l 1
 384 204.599976 l 1
320 204.599976 m 1
 320 272.866638333 320 341.133300667 320 409.399963 c 1
 256 409.399963 l 1
 256 477.666625667 256 545.933288333 256 614.199951 c 1
 192 614.199951 l 1
 192 306.999969 l 1
 256 306.999969 l 1
 256 204.599976 l 1
 320 204.599976 l 1
320 409.399963 m 1
 384 409.399963 l 1
 384 477.666625667 384 545.933288333 384 614.199951 c 1
 320 614.199951 l 1
 320 545.933288333 320 477.666625667 320 409.399963 c 1
320 614.199951 m 1
 320 716.599976 l 1
 256 716.599976 l 1
 256 614.199951 l 1
 320 614.199951 l 1
EndSplineSet
EndChar

StartChar: C0027
Encoding: 39 39 7
Width: 512
Flags: W
LayerCount: 2
Fore
SplineSet
192 511.799957 m 1
 192 409.399963 l 1
 256 409.399963 l 1
 256 511.799957 l 1
 192 511.799957 l 1
256 511.799957 m 1
 320 511.799957 l 1
 320 580.06663 320 648.333303 320 716.599976 c 1
 256 716.599976 l 1
 256 648.333303 256 580.06663 256 511.799957 c 1
EndSplineSet
EndChar

StartChar: C0028
Encoding: 40 40 8
Width: 512
Flags: W
LayerCount: 2
Fore
SplineSet
320 102.199974 m 1
 320 -0.200027 l 1
 384 -0.200027 l 1
 384 102.199974 l 1
 320 102.199974 l 1
320 102.199974 m 1
 320 204.599976 l 1
 256 204.599976 l 1
 256 102.199974 l 1
 320 102.199974 l 1
256 204.599976 m 1
 256 511.799957 l 1
 192 511.799957 l 1
 192 204.599976 l 1
 256 204.599976 l 1
256 511.799957 m 1
 320 511.799957 l 1
 320 614.199951 l 1
 256 614.199951 l 1
 256 511.799957 l 1
320 614.199951 m 1
 384 614.199951 l 1
 384 716.599976 l 1
 320 716.599976 l 1
 320 614.199951 l 1
EndSplineSet
EndChar

StartChar: C0029
Encoding: 41 41 9
Width: 512
Flags: W
LayerCount: 2
Fore
SplineSet
192 102.199974 m 1
 192 -0.200027 l 1
 256 -0.200027 l 1
 256 102.199974 l 1
 192 102.199974 l 1
192 716.599976 m 1
 192 614.199951 l 1
 256 614.199951 l 1
 256 511.799957 l 1
 320 511.799957 l 1
 320 204.599976 l 1
 256 204.599976 l 1
 256 102.199974 l 1
 320 102.199974 l 1
 320 204.599976 l 1
 384 204.599976 l 1
 384 511.799957 l 1
 320 511.799957 l 1
 320 614.199951 l 1
 256 614.199951 l 1
 256 716.599976 l 1
 192 716.599976 l 1
EndSplineSet
EndChar

StartChar: C002a
Encoding: 42 42 10
Width: 512
Flags: W
LayerCount: 2
Fore
SplineSet
128 306.999969 m 1
 128 204.599976 l 1
 192 204.599976 l 1
 192 306.999969 l 1
 128 306.999969 l 1
128 511.799957 m 1
 128 409.399963 l 1
 192 409.399963 l 1
 192 306.999969 l 1
 256 306.999969 l 1
 256 238.733304 256 170.466639 256 102.199974 c 1
 320 102.199974 l 1
 320 170.466639 320 238.733304 320 306.999969 c 1
 384 306.999969 l 1
 384 204.599976 l 1
 448 204.599976 l 1
 448 306.999969 l 1
 384 306.999969 l 1
 384 409.399963 l 1
 320 409.399963 l 1
 320 477.666625667 320 545.933288333 320 614.199951 c 1
 256 614.199951 l 1
 256 545.933288333 256 477.666625667 256 409.399963 c 1
 192 409.399963 l 1
 192 511.799957 l 1
 128 511.799957 l 1
384 409.399963 m 1
 448 409.399963 l 1
 448 511.799957 l 1
 384 511.799957 l 1
 384 409.399963 l 1
EndSplineSet
EndChar

StartChar: C002b
Encoding: 43 43 11
Width: 512
Flags: W
VStem: 128 320
LayerCount: 2
Fore
SplineSet
128 409.399963 m 1
 128 306.999969 l 1
 170.666666667 306.999969 213.333333333 306.999969 256 306.999969 c 1
 256 238.733304 256 170.466639 256 102.199974 c 1
 320 102.199974 l 1
 320 170.466639 320 238.733304 320 306.999969 c 1
 362.666666667 306.999969 405.333333333 306.999969 448 306.999969 c 1
 448 409.399963 l 1
 405.333333333 409.399963 362.666666667 409.399963 320 409.399963 c 1
 320 477.666625667 320 545.933288333 320 614.199951 c 1
 256 614.199951 l 1
 256 545.933288333 256 477.666625667 256 409.399963 c 1
 213.333333333 409.399963 170.666666667 409.399963 128 409.399963 c 1
EndSplineSet
EndChar

StartChar: C002c
Encoding: 44 44 12
Width: 512
Flags: W
VStem: 192 128
LayerCount: 2
Fore
SplineSet
192 -102.600029 m 1
 192 -205.000031 l 1
 256 -205.000031 l 1
 256 -102.600029 l 1
 192 -102.600029 l 1
256 -102.600029 m 1
 320 -102.600029 l 1
 320 204.599976 l 1
 277.333333333 204.599976 234.666666667 204.599976 192 204.599976 c 1
 192 136.333308333 192 68.0666406667 192 -0.200027 c 1
 256 -0.200027 l 1
 256 -102.600029 l 1
EndSplineSet
EndChar

StartChar: C002d
Encoding: 45 45 13
Width: 512
Flags: W
HStem: 307 102.4
VStem: 128 320
LayerCount: 2
Fore
SplineSet
128 409.399963 m 1
 128 306.999969 l 1
 448 306.999969 l 1
 448 409.399963 l 1
 128 409.399963 l 1
EndSplineSet
EndChar

StartChar: C002e
Encoding: 46 46 14
Width: 512
Flags: W
HStem: -0.200027 204.8
VStem: 192 128
LayerCount: 2
Fore
SplineSet
256 -0.200027 m 1
 320 -0.200027 l 1
 320 68.0666406667 320 136.333308333 320 204.599976 c 1
 277.333333333 204.599976 234.666666667 204.599976 192 204.599976 c 1
 192 136.333308333 192 68.0666406667 192 -0.200027 c 1
 256 -0.200027 l 1
EndSplineSet
EndChar

StartChar: C002f
Encoding: 47 47 15
Width: 512
Flags: W
LayerCount: 2
Fore
SplineSet
64 102.199974 m 1
 64 -0.200027 l 1
 128 -0.200027 l 1
 128 102.199974 l 1
 64 102.199974 l 1
128 102.199974 m 1
 192 102.199974 l 1
 192 204.599976 l 1
 128 204.599976 l 1
 128 102.199974 l 1
192 204.599976 m 1
 256 204.599976 l 1
 256 306.999969 l 1
 192 306.999969 l 1
 192 204.599976 l 1
256 306.999969 m 1
 320 306.999969 l 1
 320 409.399963 l 1
 256 409.399963 l 1
 256 306.999969 l 1
320 409.399963 m 1
 384 409.399963 l 1
 384 511.799957 l 1
 320 511.799957 l 1
 320 409.399963 l 1
384 511.799957 m 1
 448 511.799957 l 1
 448 614.199951 l 1
 384 614.199951 l 1
 384 511.799957 l 1
448 614.199951 m 1
 512 614.199951 l 1
 512 716.599976 l 1
 448 716.599976 l 1
 448 614.199951 l 1
EndSplineSet
EndChar

StartChar: C0030
Encoding: 48 48 16
Width: 512
Flags: W
LayerCount: 2
Fore
SplineSet
384 102.199974 m 1
 192 102.199974 l 1
 192 -0.200027 l 1
 256 -0.200027 l 1
 320 -0.200027 l 1
 384 -0.200027 l 1
 384 102.199974 l 1
384 102.199974 m 1
 448 102.199974 l 1
 448 614.199951 l 1
 384 614.199951 l 1
 384 511.799957 l 1
 320 511.799957 l 1
 320 409.399963 l 1
 256 409.399963 l 1
 256 306.999969 l 1
 192 306.999969 l 1
 192 614.199951 l 1
 128 614.199951 l 1
 128 102.199974 l 1
 192 102.199974 l 1
 192 204.599976 l 1
 256 204.599976 l 1
 256 306.999969 l 1
 320 306.999969 l 1
 320 409.399963 l 1
 384 409.399963 l 1
 384 102.199974 l 1
384 614.199951 m 1
 384 716.599976 l 1
 192 716.599976 l 1
 192 614.199951 l 1
 384 614.199951 l 1
EndSplineSet
EndChar

StartChar: C0031
Encoding: 49 49 17
Width: 512
Flags: W
VStem: 192 192
LayerCount: 2
Fore
SplineSet
192 102.199974 m 1
 192 -0.200027 l 1
 256 -0.200027 l 1
 320 -0.200027 l 1
 384 -0.200027 l 1
 384 102.199974 l 1
 320 102.199974 l 1
 320 306.999974667 320 511.799975333 320 716.599976 c 1
 256 716.599976 l 1
 256 614.199951 l 1
 192 614.199951 l 1
 192 511.799957 l 1
 256 511.799957 l 1
 256 375.266629333 256 238.733301667 256 102.199974 c 1
 192 102.199974 l 1
EndSplineSet
EndChar

StartChar: C0032
Encoding: 50 50 18
Width: 512
Flags: W
VStem: 128 320
LayerCount: 2
Fore
SplineSet
128 102.199974 m 1
 128 -0.200027 l 1
 192 -0.200027 l 1
 384 -0.200027 l 1
 448 -0.200027 l 1
 448 102.199974 l 1
 256 102.199974 l 1
 256 204.599976 l 1
 192 204.599976 l 1
 192 102.199974 l 1
 128 102.199974 l 1
128 614.199951 m 1
 128 511.799957 l 1
 192 511.799957 l 1
 192 614.199951 l 1
 128 614.199951 l 1
256 204.599976 m 1
 320 204.599976 l 1
 320 306.999969 l 1
 256 306.999969 l 1
 256 204.599976 l 1
320 306.999969 m 1
 384 306.999969 l 1
 384 409.399963 l 1
 320 409.399963 l 1
 320 306.999969 l 1
384 409.399963 m 1
 448 409.399963 l 1
 448 477.666625667 448 545.933288333 448 614.199951 c 1
 384 614.199951 l 1
 384 545.933288333 384 477.666625667 384 409.399963 c 1
384 614.199951 m 1
 384 716.599976 l 1
 192 716.599976 l 1
 192 614.199951 l 1
 384 614.199951 l 1
EndSplineSet
EndChar

StartChar: C0033
Encoding: 51 51 19
Width: 512
Flags: W
VStem: 128 320
LayerCount: 2
Fore
SplineSet
128 204.599976 m 1
 128 102.199974 l 1
 192 102.199974 l 1
 192 -0.200027 l 1
 256 -0.200027 l 1
 320 -0.200027 l 1
 384 -0.200027 l 1
 384 102.199974 l 1
 192 102.199974 l 1
 192 204.599976 l 1
 128 204.599976 l 1
256 511.799957 m 1
 256 409.399963 l 1
 320 409.399963 l 1
 320 306.999969 l 1
 384 306.999969 l 1
 384 238.733304 384 170.466639 384 102.199974 c 1
 448 102.199974 l 1
 448 170.466639 448 238.733304 448 306.999969 c 1
 384 306.999969 l 1
 384 409.399963 l 1
 320 409.399963 l 1
 320 511.799957 l 1
 256 511.799957 l 1
128 716.599976 m 1
 128 614.199951 l 1
 320 614.199951 l 1
 320 511.799957 l 1
 384 511.799957 l 1
 384 614.199951 l 1
 448 614.199951 l 1
 448 716.599976 l 1
 128 716.599976 l 1
EndSplineSet
EndChar

StartChar: C0034
Encoding: 52 52 20
Width: 512
Flags: W
HStem: 491.8 20G<256 320>
VStem: 128 320
LayerCount: 2
Fore
SplineSet
384 -0.200027 m 1
 384 68.0666406667 384 136.333308333 384 204.599976 c 1
 448 204.599976 l 1
 448 306.999969 l 1
 384 306.999969 l 1
 384 443.533304667 384 580.066640333 384 716.599976 c 1
 320 716.599976 l 1
 320 614.199951 l 1
 256 614.199951 l 1
 256 511.799957 l 1
 192 511.799957 l 1
 192 409.399963 l 1
 128 409.399963 l 1
 128 341.133300667 128 272.866638333 128 204.599976 c 1
 320 204.599976 l 1
 320 136.333308333 320 68.0666406667 320 -0.200027 c 1
 384 -0.200027 l 1
320 306.999969 m 1
 277.333333333 306.999969 234.666666667 306.999969 192 306.999969 c 1
 192 409.399963 l 1
 256 409.399963 l 1
 256 511.799957 l 1
 320 511.799957 l 1
 320 443.533294333 320 375.266631667 320 306.999969 c 1
EndSplineSet
EndChar

StartChar: C0035
Encoding: 53 53 21
Width: 512
Flags: W
VStem: 128 320
LayerCount: 2
Fore
SplineSet
128 204.599976 m 1
 128 102.199974 l 1
 192 102.199974 l 1
 192 -0.200027 l 1
 256 -0.200027 l 1
 320 -0.200027 l 1
 384 -0.200027 l 1
 384 102.199974 l 1
 192 102.199974 l 1
 192 204.599976 l 1
 128 204.599976 l 1
384 102.199974 m 1
 448 102.199974 l 1
 448 409.399963 l 1
 384 409.399963 l 1
 384 102.199974 l 1
384 409.399963 m 1
 384 511.799957 l 1
 192 511.799957 l 1
 192 614.199951 l 1
 277.333333333 614.199951 362.666666667 614.199951 448 614.199951 c 1
 448 716.599976 l 1
 128 716.599976 l 1
 128 409.399963 l 1
 213.333333333 409.399963 298.666666667 409.399963 384 409.399963 c 1
EndSplineSet
EndChar

StartChar: C0036
Encoding: 54 54 22
Width: 512
Flags: W
LayerCount: 2
Fore
SplineSet
384 102.199974 m 1
 192 102.199974 l 1
 192 -0.200027 l 1
 256 -0.200027 l 1
 320 -0.200027 l 1
 384 -0.200027 l 1
 384 102.199974 l 1
384 102.199974 m 1
 448 102.199974 l 1
 448 170.466639 448 238.733304 448 306.999969 c 1
 384 306.999969 l 1
 384 238.733304 384 170.466639 384 102.199974 c 1
192 102.199974 m 1
 192 170.466639 192 238.733304 192 306.999969 c 1
 384 306.999969 l 1
 384 409.399963 l 1
 192 409.399963 l 1
 192 511.799957 l 1
 128 511.799957 l 1
 128 375.266629333 128 238.733301667 128 102.199974 c 1
 192 102.199974 l 1
192 511.799957 m 1
 256 511.799957 l 1
 256 614.199951 l 1
 192 614.199951 l 1
 192 511.799957 l 1
384 716.599976 m 1
 341.333333333 716.599976 298.666666667 716.599976 256 716.599976 c 1
 256 614.199951 l 1
 298.666666667 614.199951 341.333333333 614.199951 384 614.199951 c 1
 384 716.599976 l 1
EndSplineSet
EndChar

StartChar: C0037
Encoding: 55 55 23
Width: 512
Flags: W
VStem: 128 320
LayerCount: 2
Fore
SplineSet
128 716.599976 m 1
 128 614.199951 l 1
 213.333333333 614.199951 298.666666667 614.199951 384 614.199951 c 1
 384 511.799957 l 1
 320 511.799957 l 1
 320 409.399963 l 1
 256 409.399963 l 1
 256 306.999969 l 1
 192 306.999969 l 1
 192 -0.200027 l 1
 256 -0.200027 l 1
 256 306.999969 l 1
 320 306.999969 l 1
 320 409.399963 l 1
 384 409.399963 l 1
 384 511.799957 l 1
 448 511.799957 l 1
 448 580.06663 448 648.333303 448 716.599976 c 1
 128 716.599976 l 1
EndSplineSet
EndChar

StartChar: C0038
Encoding: 56 56 24
Width: 512
Flags: W
LayerCount: 2
Fore
SplineSet
384 102.199974 m 1
 192 102.199974 l 1
 192 -0.200027 l 1
 256 -0.200027 l 1
 320 -0.200027 l 1
 384 -0.200027 l 1
 384 102.199974 l 1
384 102.199974 m 1
 448 102.199974 l 1
 448 170.466639 448 238.733304 448 306.999969 c 1
 384 306.999969 l 1
 384 238.733304 384 170.466639 384 102.199974 c 1
192 102.199974 m 1
 192 170.466639 192 238.733304 192 306.999969 c 1
 128 306.999969 l 1
 128 238.733304 128 170.466639 128 102.199974 c 1
 192 102.199974 l 1
384 306.999969 m 1
 384 409.399963 l 1
 192 409.399963 l 1
 192 306.999969 l 1
 384 306.999969 l 1
384 409.399963 m 1
 448 409.399963 l 1
 448 477.666625667 448 545.933288333 448 614.199951 c 1
 384 614.199951 l 1
 384 545.933288333 384 477.666625667 384 409.399963 c 1
192 409.399963 m 1
 192 477.666625667 192 545.933288333 192 614.199951 c 1
 128 614.199951 l 1
 128 545.933288333 128 477.666625667 128 409.399963 c 1
 192 409.399963 l 1
384 614.199951 m 1
 384 716.599976 l 1
 192 716.599976 l 1
 192 614.199951 l 1
 384 614.199951 l 1
EndSplineSet
EndChar

StartChar: C0039
Encoding: 57 57 25
Width: 512
Flags: W
LayerCount: 2
Fore
SplineSet
192 102.199974 m 1
 192 -0.200027 l 1
 256 -0.200027 l 1
 320 -0.200027 l 1
 320 102.199974 l 1
 277.333333333 102.199974 234.666666667 102.199974 192 102.199974 c 1
320 102.199974 m 1
 384 102.199974 l 1
 384 204.599976 l 1
 320 204.599976 l 1
 320 102.199974 l 1
384 204.599976 m 1
 448 204.599976 l 1
 448 341.133301 448 477.666626 448 614.199951 c 1
 384 614.199951 l 1
 384 545.933288333 384 477.666625667 384 409.399963 c 1
 192 409.399963 l 1
 192 306.999969 l 1
 384 306.999969 l 1
 384 204.599976 l 1
192 409.399963 m 1
 192 477.666625667 192 545.933288333 192 614.199951 c 1
 128 614.199951 l 1
 128 545.933288333 128 477.666625667 128 409.399963 c 1
 192 409.399963 l 1
384 614.199951 m 1
 384 716.599976 l 1
 192 716.599976 l 1
 192 614.199951 l 1
 384 614.199951 l 1
EndSplineSet
EndChar

StartChar: C003a
Encoding: 58 58 26
Width: 512
Flags: W
VStem: 192 128
LayerCount: 2
Fore
SplineSet
192 102.199974 m 1
 234.666666667 102.199974 277.333333333 102.199974 320 102.199974 c 1
 320 170.466639 320 238.733304 320 306.999969 c 1
 277.333333333 306.999969 234.666666667 306.999969 192 306.999969 c 1
 192 238.733304 192 170.466639 192 102.199974 c 1
192 409.399963 m 1
 234.666666667 409.399963 277.333333333 409.399963 320 409.399963 c 1
 320 477.666625667 320 545.933288333 320 614.199951 c 1
 277.333333333 614.199951 234.666666667 614.199951 192 614.199951 c 1
 192 545.933288333 192 477.666625667 192 409.399963 c 1
EndSplineSet
EndChar

StartChar: C003b
Encoding: 59 59 27
Width: 512
Flags: W
VStem: 192 128
LayerCount: 2
Fore
SplineSet
192 -0.200027 m 1
 192 -102.600029 l 1
 256 -102.600029 l 1
 256 -0.200027 l 1
 192 -0.200027 l 1
256 -0.200027 m 1
 320 -0.200027 l 1
 320 306.999969 l 1
 277.333333333 306.999969 234.666666667 306.999969 192 306.999969 c 1
 192 238.733304 192 170.466639 192 102.199974 c 1
 256 102.199974 l 1
 256 -0.200027 l 1
192 409.399963 m 1
 234.666666667 409.399963 277.333333333 409.399963 320 409.399963 c 1
 320 477.666625667 320 545.933288333 320 614.199951 c 1
 277.333333333 614.199951 234.666666667 614.199951 192 614.199951 c 1
 192 545.933288333 192 477.666625667 192 409.399963 c 1
EndSplineSet
EndChar

StartChar: C003c
Encoding: 60 60 28
Width: 512
Flags: W
LayerCount: 2
Fore
SplineSet
192 409.399963 m 1
 192 306.999969 l 1
 256 306.999969 l 1
 256 204.599976 l 1
 320 204.599976 l 1
 320 102.199974 l 1
 384 102.199974 l 1
 384 -0.200027 l 1
 448 -0.200027 l 1
 448 102.199974 l 1
 384 102.199974 l 1
 384 204.599976 l 1
 320 204.599976 l 1
 320 306.999969 l 1
 256 306.999969 l 1
 256 409.399963 l 1
 192 409.399963 l 1
256 409.399963 m 1
 320 409.399963 l 1
 320 511.799957 l 1
 256 511.799957 l 1
 256 409.399963 l 1
320 511.799957 m 1
 384 511.799957 l 1
 384 614.199951 l 1
 320 614.199951 l 1
 320 511.799957 l 1
384 614.199951 m 1
 448 614.199951 l 1
 448 716.599976 l 1
 384 716.599976 l 1
 384 614.199951 l 1
EndSplineSet
EndChar

StartChar: C003d
Encoding: 61 61 29
Width: 512
Flags: W
VStem: 128 320
LayerCount: 2
Fore
SplineSet
128 306.999969 m 1
 128 204.599976 l 1
 448 204.599976 l 1
 448 306.999969 l 1
 128 306.999969 l 1
128 511.799957 m 1
 128 409.399963 l 1
 448 409.399963 l 1
 448 511.799957 l 1
 128 511.799957 l 1
EndSplineSet
EndChar

StartChar: C003e
Encoding: 62 62 30
Width: 512
Flags: W
LayerCount: 2
Fore
SplineSet
128 102.199974 m 1
 128 -0.200027 l 1
 192 -0.200027 l 1
 192 102.199974 l 1
 128 102.199974 l 1
128 716.599976 m 1
 128 614.199951 l 1
 192 614.199951 l 1
 192 511.799957 l 1
 256 511.799957 l 1
 256 409.399963 l 1
 320 409.399963 l 1
 320 306.999969 l 1
 256 306.999969 l 1
 256 204.599976 l 1
 192 204.599976 l 1
 192 102.199974 l 1
 256 102.199974 l 1
 256 204.599976 l 1
 320 204.599976 l 1
 320 306.999969 l 1
 384 306.999969 l 1
 384 409.399963 l 1
 320 409.399963 l 1
 320 511.799957 l 1
 256 511.799957 l 1
 256 614.199951 l 1
 192 614.199951 l 1
 192 716.599976 l 1
 128 716.599976 l 1
EndSplineSet
EndChar

StartChar: C003f
Encoding: 63 63 31
Width: 512
Flags: W
LayerCount: 2
Fore
SplineSet
256 102.199974 m 1
 256 -0.200027 l 1
 320 -0.200027 l 1
 320 102.199974 l 1
 256 102.199974 l 1
256 306.999969 m 1
 256 204.599976 l 1
 320 204.599976 l 1
 320 306.999969 l 1
 256 306.999969 l 1
128 614.199951 m 1
 128 511.799957 l 1
 192 511.799957 l 1
 192 614.199951 l 1
 128 614.199951 l 1
320 306.999969 m 1
 384 306.999969 l 1
 384 409.399963 l 1
 320 409.399963 l 1
 320 306.999969 l 1
384 409.399963 m 1
 448 409.399963 l 1
 448 477.666625667 448 545.933288333 448 614.199951 c 1
 384 614.199951 l 1
 384 545.933288333 384 477.666625667 384 409.399963 c 1
384 614.199951 m 1
 384 716.599976 l 1
 192 716.599976 l 1
 192 614.199951 l 1
 384 614.199951 l 1
EndSplineSet
EndChar

StartChar: C0040
Encoding: 64 64 32
Width: 512
Flags: W
LayerCount: 2
Fore
SplineSet
448 102.199974 m 1
 362.666666667 102.199974 277.333333333 102.199974 192 102.199974 c 1
 192 -0.200027 l 1
 256 -0.200027 l 2
 298.666666667 -0.200027 341.333333333 -0.200027 384 -0.200027 c 2
 448 -0.200027 l 1
 448 102.199974 l 1
192 102.199974 m 1
 192 238.733301667 192 375.266629333 192 511.799957 c 1
 128 511.799957 l 1
 128 375.266629333 128 238.733301667 128 102.199974 c 1
 192 102.199974 l 1
256 204.599976 m 1
 448 204.599976 l 1
 448 341.133301 448 477.666626 448 614.199951 c 1
 384 614.199951 l 1
 384 511.799957 l 1
 341.333333333 511.799957 298.666666667 511.799957 256 511.799957 c 1
 256 204.599976 l 1
384 306.999969 m 1
 320 306.999969 l 1
 320 409.399963 l 1
 384 409.399963 l 1
 384 306.999969 l 1
256 511.799957 m 1
 256 614.199951 l 1
 192 614.199951 l 1
 192 511.799957 l 1
 256 511.799957 l 1
384 614.199951 m 1
 384 716.599976 l 1
 341.333333333 716.599976 298.666666667 716.599976 256 716.599976 c 1
 256 614.199951 l 1
 298.666666667 614.199951 341.333333333 614.199951 384 614.199951 c 1
EndSplineSet
EndChar

StartChar: C0021
Encoding: 33 33 33
Width: 512
Flags: HW
HStem: -0 102<256 320> 697 20G<256 320>
VStem: 256 64<-0.200027 102.2 204.6 716.6>
LayerCount: 2
Fore
SplineSet
256 102 m 1
 320 102 l 1
 320 -0 l 1
 256 -0 l 1
 256 102 l 1
320 205 m 1
 256 205 l 1
 256 717 l 1
 320 717 l 1
 320 205 l 1
EndSplineSet
EndChar

StartChar: C0022
Encoding: 34 34 34
Width: 512
Flags: HW
HStem: 409 307<192 256 320 384>
VStem: 192 64<409.4 716.6> 320 64<409.4 716.6>
LayerCount: 2
Fore
SplineSet
384 409 m 1
 320 409 l 1
 320 716 l 1
 384 716 l 1
 384 409 l 1
256 409 m 1
 192 409 l 1
 192 716 l 1
 256 716 l 1
 256 409 l 1
EndSplineSet
EndChar

StartChar: C0023
Encoding: 35 35 35
Width: 512
Flags: HW
HStem: -0 21G<192 256 320 384> 205 102<128 192 256 320 384 448> 409 102<128 192 256 320 384 448> 697 20G<192 256 320 384>
VStem: 192 64<-0.200027 204.6 307 409.4 511.8 716.6> 320 64<-0.200027 204.6 307 409.4 511.8 716.6>
LayerCount: 2
Fore
SplineSet
128 307 m 1
 192 307 l 1
 192 409 l 1
 128 409 l 1
 128 511 l 1
 192 511 l 1
 192 717 l 1
 256 717 l 1
 256 511 l 1
 320 511 l 1
 320 717 l 1
 384 717 l 1
 384 511 l 1
 448 511 l 1
 448 409 l 1
 384 409 l 1
 384 307 l 1
 448 307 l 1
 448 205 l 1
 384 205 l 1
 384 -0 l 1
 320 -0 l 1
 320 205 l 1
 256 205 l 1
 256 -0 l 1
 192 -0 l 1
 192 205 l 1
 128 205 l 1
 128 307 l 1
320 307 m 1
 320 409 l 1
 256 409 l 1
 256 307 l 1
 320 307 l 1
EndSplineSet
EndChar

StartChar: C0024
Encoding: 36 36 36
Width: 512
Flags: HW
HStem: -0 21G<256 320> 102 102<128 256 320 384> 205 102<384 448> 307 102<192 256 320 384> 512 102<192 256 320 448> 697 20G<256 320>
VStem: 128 64<409.4 511.8> 192 192<307 409.4> 256 64<-0.200027 102.2 204.6 307 409.4 511.8 614.2 716.6> 384 64<204.6 307>
LayerCount: 2
Fore
SplineSet
128 204 m 1xdec0
 256 204 l 1
 256 307 l 1xdec0
 192 307 l 1xdd
 192 409 l 1
 128 409 l 1
 128 512 l 1
 192 512 l 1xde
 192 614 l 1xdd
 256 614 l 1
 256 717 l 1
 320 717 l 1
 320 614 l 1
 448 614 l 1
 448 512 l 1
 320 512 l 1
 320 409 l 1xdcc0
 384 409 l 1xdd
 384 307 l 1xad
 448 307 l 1
 448 204 l 1xac40
 384 204 l 1xcc40
 384 307 l 1xad
 320 307 l 1
 320 204 l 1
 384 204 l 1
 384 102 l 1
 320 102 l 1
 320 -0 l 1
 256 -0 l 1
 256 102 l 1
 128 102 l 1
 128 204 l 1xdec0
256 409 m 1
 256 512 l 1
 192 512 l 1
 192 409 l 1
 256 409 l 1
EndSplineSet
EndChar

StartChar: C0025
Encoding: 37 37 37
Width: 512
Flags: HW
HStem: -0 205<320 448> 102 102<128 192> 205 102<192 256> 307 102<256 320> 409 102<320 384> 512 205<128 256> 512 102<384 448>
VStem: 128 64<102.2 204.6> 192 64<204.6 307> 256 64<307 409.4> 320 64<409.4 511.8> 384 64<511.8 614.2>
LayerCount: 2
Fore
SplineSet
128 205 m 1x41
 192 205 l 1
 192 102 l 1
 128 102 l 1
 128 205 l 1x41
448 -0 m 1x8010
 320 -0 l 1
 320 205 l 1x8020
 448 205 l 1
 448 -0 l 1x8010
192 205 m 1x41
 192 307 l 1
 256 307 l 1
 256 205 l 1x2080
 192 205 l 1x41
256 307 m 1
 256 409 l 1
 320 409 l 1
 320 307 l 1x1040
 256 307 l 1
320 409 m 1
 320 511 l 1
 384 511 l 1
 384 409 l 1x0820
 320 409 l 1
384 511 m 1
 384 614 l 1
 448 614 l 1
 448 511 l 1x0210
 384 511 l 1
128 511 m 1x0540
 128 717 l 1
 256 717 l 1
 256 511 l 1
 128 511 l 1x0540
EndSplineSet
EndChar

StartChar: C0026
Encoding: 38 38 38
Width: 512
Flags: HW
HStem: -0 102<192 320 384 448> 102 102<320 384> 205 102<384 448> 614 102<256 320>
VStem: 128 64<102.2 307> 192 64<409.4 614.2> 256 64<204.6 307 614.2 716.6> 320 64<102.2 204.6 409.4 614.2> 384 64<-0.200027 102.2 204.6 307>
LayerCount: 2
Fore
SplineSet
320 102 m 1x99
 320 -0 l 1
 192 -0 l 1x95
 192 102 l 1
 320 102 l 1x99
384 102 m 1
 448 102 l 1
 448 -0 l 1
 384 -0 l 1x9080
 384 102 l 1
384 102 m 1x91
 320 102 l 1x91
 320 204 l 1x52
 384 204 l 1x51
 384 102 l 1x91
192 102 m 1xb8
 128 102 l 1x58
 128 307 l 1
 192 307 l 1
 192 102 l 1xb8
384 204 m 1x51
 384 307 l 1
 448 307 l 1
 448 204 l 1x3080
 384 204 l 1x51
320 204 m 1x52
 256 204 l 1
 256 307 l 1
 192 307 l 1x3a
 192 614 l 1
 256 614 l 1
 256 409 l 1
 320 409 l 1x35
 320 204 l 1x52
320 409 m 1x11
 320 614 l 1x12
 384 614 l 1
 384 409 l 1
 320 409 l 1x11
320 614 m 1
 256 614 l 1x14
 256 716 l 1
 320 716 l 1
 320 614 l 1
EndSplineSet
EndChar

StartChar: C0027
Encoding: 39 39 39
Width: 512
Flags: HW
HStem: 409 102<192 256> 512 21G<256 320> 697 20G<256 320>
VStem: 192 64<409.4 511.8> 256 64<511.8 716.6>
LayerCount: 2
Fore
SplineSet
192 511 m 1xb0
 256 511 l 1
 256 409 l 1
 192 409 l 1
 192 511 l 1xb0
256 511 m 1
 256 717 l 1
 320 717 l 1
 320 511 l 1x68
 256 511 l 1
EndSplineSet
EndChar

StartChar: C0028
Encoding: 40 40 40
Width: 512
Flags: HW
HStem: -0 102<320 384> 102 102<256 320> 492 20G<192 256> 512 102<256 320> 614 102<320 384>
VStem: 192 64<204.6 511.8> 256 64<102.2 204.6 511.8 614.2> 320 64<-0.200027 102.2 614.2 716.6>
LayerCount: 2
Fore
SplineSet
320 102 m 1x82
 384 102 l 1
 384 -0 l 1
 320 -0 l 1x81
 320 102 l 1x82
320 102 m 1x82
 256 102 l 1x42
 256 204 l 1x44
 320 204 l 1x42
 320 102 l 1x82
256 204 m 1x64
 192 204 l 1
 192 512 l 1x64
 256 512 l 1x62
 256 204 l 1x64
256 512 m 1x22
 256 614 l 1
 320 614 l 1
 320 512 l 1x12
 256 512 l 1x22
320 614 m 1
 320 716 l 1
 384 716 l 1
 384 614 l 1x09
 320 614 l 1
EndSplineSet
EndChar

StartChar: C0029
Encoding: 41 41 41
Width: 512
Flags: HW
HStem: -0 102<192 256> 102 102<256 320> 512 102<256 320> 614 102<192 256>
VStem: 192 64<-0.200027 102.2 614.2 716.6> 256 64<102.2 204.6 511.8 614.2> 320 64<204.6 511.8>
LayerCount: 2
Fore
SplineSet
192 102 m 1x88
 256 102 l 1x88
 256 -0 l 1x84
 192 -0 l 1
 192 102 l 1x88
192 716 m 1x18
 256 716 l 1x18
 256 614 l 1x28
 320 614 l 1
 320 512 l 1x24
 384 512 l 1
 384 204 l 1x62
 320 204 l 1
 320 102 l 1x64
 256 102 l 1x88
 256 204 l 1
 320 204 l 1
 320 512 l 1
 256 512 l 1x64
 256 614 l 1x68
 192 614 l 1
 192 716 l 1x18
EndSplineSet
EndChar

StartChar: C002a
Encoding: 42 42 42
Width: 512
Flags: HW
HStem: 205 102<128 192 384 448> 307 102<192 256 320 384> 409 102<128 192 384 448>
VStem: 128 64<204.6 307 409.4 511.8> 192 192<307 409.4> 256 64<102.2 307 409.4 614.2> 384 64<204.6 307 409.4 511.8>
LayerCount: 2
Fore
SplineSet
128 307 m 1x90
 192 307 l 1
 192 205 l 1
 128 205 l 1
 128 307 l 1x90
128 511 m 1x34
 192 511 l 1x34
 192 409 l 1
 256 409 l 1
 256 614 l 1
 320 614 l 1
 320 409 l 1x54
 384 409 l 1x48
 384 307 l 1x88
 448 307 l 1
 448 205 l 1
 384 205 l 1x82
 384 307 l 1x88
 320 307 l 1
 320 102 l 1
 256 102 l 1
 256 307 l 1x44
 192 307 l 1x94
 192 409 l 1x54
 128 409 l 1
 128 511 l 1x34
384 409 m 1x48
 384 511 l 1
 448 511 l 1
 448 409 l 1x22
 384 409 l 1x48
EndSplineSet
EndChar

StartChar: C002b
Encoding: 43 43 43
Width: 512
Flags: HW
HStem: 307 102<128 256 320 448>
VStem: 256 64<102.2 307 409.4 614.2>
LayerCount: 2
Fore
SplineSet
128 409 m 1
 256 409 l 1
 256 614 l 1
 320 614 l 1
 320 409 l 1
 448 409 l 1
 448 307 l 1
 320 307 l 1
 320 102 l 1
 256 102 l 1
 256 307 l 1
 128 307 l 1
 128 409 l 1
EndSplineSet
EndChar

StartChar: C002c
Encoding: 44 44 44
Width: 512
Flags: HW
HStem: -205 102<192 256>
VStem: 192 64<-205 -102.6> 256 64<-102.6 -0.200027>
LayerCount: 2
Fore
SplineSet
192 -103 m 1xc0
 256 -103 l 1
 256 -205 l 1
 192 -205 l 1
 192 -103 l 1xc0
256 -103 m 1
 256 -0 l 1xa0
 192 -0 l 1
 192 205 l 1xc0
 320 205 l 1
 320 -103 l 1xa0
 256 -103 l 1
EndSplineSet
EndChar

StartChar: C002d
Encoding: 45 45 45
Width: 512
Flags: HW
HStem: 307 102<128 448>
VStem: 128 320<307 409.4>
LayerCount: 2
Fore
SplineSet
128 409 m 1
 448 409 l 1
 448 307 l 1
 128 307 l 1
 128 409 l 1
EndSplineSet
EndChar

StartChar: C002e
Encoding: 46 46 46
Width: 512
Flags: HW
HStem: -0 205<192 320>
VStem: 192 128<-0.200027 204.6>
LayerCount: 2
Fore
SplineSet
320 -0 m 1
 192 -0 l 1
 192 205 l 1
 320 205 l 1
 320 -0 l 1
EndSplineSet
EndChar

StartChar: C002f
Encoding: 47 47 47
Width: 512
Flags: HW
HStem: -0 102<64 128> 102 102<128 192> 205 102<192 256> 307 102<256 320> 409 102<320 384> 512 102<384 448> 614 102<448 512>
VStem: 64 64<-0.200027 102.2> 128 64<102.2 204.6> 192 64<204.6 307> 256 64<307 409.4> 320 64<409.4 511.8> 384 64<511.8 614.2> 448 64<614.2 716.6>
LayerCount: 2
Fore
SplineSet
64 102 m 1x81
 128 102 l 1
 128 -0 l 1
 64 -0 l 1
 64 102 l 1x81
128 102 m 1
 128 204 l 1
 192 204 l 1
 192 102 l 1x4080
 128 102 l 1
192 204 m 1
 192 307 l 1
 256 307 l 1
 256 204 l 1x2040
 192 204 l 1
256 307 m 1
 256 409 l 1
 320 409 l 1
 320 307 l 1x1020
 256 307 l 1
320 409 m 1
 320 511 l 1
 384 511 l 1
 384 409 l 1x0810
 320 409 l 1
384 511 m 1
 384 614 l 1
 448 614 l 1
 448 511 l 1x0408
 384 511 l 1
448 614 m 1
 448 716 l 1
 512 716 l 1
 512 614 l 1x0204
 448 614 l 1
EndSplineSet
EndChar

StartChar: C0030
Encoding: 48 48 48
Width: 512
Flags: HW
HStem: -0 102<192 384> 205 102<192 256> 307 102<256 320> 409 102<320 384> 614 102<192 384>
VStem: 128 128<204.6 307> 128 64<102.2 204.6 307 614.2> 192 192<-0.200027 102.2 614.2 716.6> 256 64<307 409.4> 320 128<409.4 511.8> 384 64<102.2 409.4 511.8 614.2>
LayerCount: 2
Fore
SplineSet
384 102 m 1x89
 384 -0 l 1x8820
 192 -0 l 1x89
 192 102 l 1x8a
 384 102 l 1x89
384 102 m 1x99
 384 409 l 1x9820
 320 409 l 1
 320 307 l 1xa8a0
 256 307 l 1
 256 205 l 1xcc
 192 205 l 1
 192 102 l 1
 128 102 l 1
 128 614 l 1
 192 614 l 1
 192 307 l 1xca
 256 307 l 1xcc
 256 409 l 1
 320 409 l 1xa880
 320 511 l 1x9840
 384 511 l 1x9820
 384 614 l 1x99
 448 614 l 1
 448 102 l 1x9820
 384 102 l 1x99
384 614 m 1x89
 192 614 l 1x8a
 192 716 l 1
 384 716 l 1
 384 614 l 1x89
EndSplineSet
EndChar

StartChar: C0031
Encoding: 49 49 49
Width: 512
Flags: HW
HStem: -0 102<192 256 320 384> 512 102<192 256> 697 20G<256 320>
VStem: 192 192<-0.200027 102.2> 192 128<511.8 614.2> 256 64<102.2 511.8 614.2 716.6>
LayerCount: 2
Fore
SplineSet
192 102 m 1xf0
 256 102 l 1
 256 512 l 1xe4
 192 512 l 1
 192 614 l 1xe8
 256 614 l 1
 256 717 l 1
 320 717 l 1
 320 512 320 307 320 102 c 1xe4
 384 102 l 1
 384 -0 l 1
 192 -0 l 1
 192 102 l 1xf0
EndSplineSet
EndChar

StartChar: C0032
Encoding: 50 50 50
Width: 512
Flags: HW
HStem: -0 102<128 192 256 448> 205 102<256 320> 307 102<320 384> 512 102<128 192> 614 102<192 384>
VStem: 128 64<511.8 614.2> 192 64<102.2 204.6> 256 64<204.6 307> 320 64<307 409.4> 384 64<409.4 614.2>
LayerCount: 2
Fore
SplineSet
128 102 m 1xc440
 192 102 l 1
 192 205 l 1
 256 205 l 1
 256 102 l 1xc2
 448 102 l 1
 448 -0 l 1
 128 -0 l 1
 128 102 l 1xc440
128 614 m 1x94
 192 614 l 1
 192 512 l 1
 128 512 l 1
 128 614 l 1x94
256 205 m 1xc2
 256 307 l 1
 320 307 l 1
 320 205 l 1xc1
 256 205 l 1xc2
320 307 m 1
 320 409 l 1
 384 409 l 1
 384 307 l 1xa080
 320 307 l 1
384 409 m 1
 384 614 l 1
 448 614 l 1
 448 409 l 1xa840
 384 409 l 1
384 614 m 1
 192 614 l 1x9440
 192 716 l 1x8a
 384 716 l 1
 384 614 l 1
EndSplineSet
EndChar

StartChar: C0033
Encoding: 51 51 51
Width: 512
Flags: HW
HStem: -0 102<192 384> 102 102<128 192> 307 102<320 384> 409 102<256 320> 512 21G<320 384> 614 102<128 320 384 448>
VStem: 128 64<102.2 204.6> 192 192<-0.200027 102.2> 256 64<409.4 511.8> 320 64<307 409.4 511.8 614.2> 384 64<102.2 307>
LayerCount: 2
Fore
SplineSet
128 204 m 1x46
 192 204 l 1x46
 192 102 l 1x86
 384 102 l 1
 384 -0 l 1
 192 -0 l 1x85
 192 102 l 1x86
 128 102 l 1
 128 204 l 1x46
256 511 m 1x1480
 320 511 l 1x1480
 320 409 l 1x2480
 384 409 l 1
 384 307 l 1x2440
 448 307 l 1
 448 102 l 1x6420
 384 102 l 1x85
 384 307 l 1
 320 307 l 1xa440
 320 409 l 1xa480
 256 409 l 1
 256 511 l 1x1480
128 716 m 1x1640
 448 716 l 1
 448 614 l 1x1620
 384 614 l 1
 384 511 l 1x0c40
 320 511 l 1x1480
 320 614 l 1
 128 614 l 1
 128 716 l 1x1640
EndSplineSet
EndChar

StartChar: C0034
Encoding: 52 52 52
Width: 512
Flags: HW
HStem: -0 21G<320 384> 205 102<192 320 384 448> 409 102<192 256> 512 102<256 320> 697 20G<320 384>
VStem: 128 64<307 409.4> 192 64<409.4 511.8> 256 128<511.8 614.2> 320 64<-0.200027 204.6 307 511.8 614.2 716.6>
LayerCount: 2
Fore
SplineSet
384 -0 m 1xd880
 320 -0 l 1
 320 205 l 1
 128 205 l 1
 128 273 128 341 128 409 c 1
 192 409 l 1xec80
 192 511 l 1
 256 511 l 1xea
 256 614 l 1xd9
 320 614 l 1
 320 717 l 1
 384 717 l 1
 384 307 l 1
 448 307 l 1
 448 205 l 1
 384 205 l 1
 384 -0 l 1xd880
320 307 m 1
 320 375 320 443 320 511 c 1xdc80
 256 511 l 1
 256 409 l 1xea80
 192 409 l 1
 192 307 l 1
 320 307 l 1
EndSplineSet
EndChar

StartChar: C0035
Encoding: 53 53 53
Width: 512
Flags: HW
HStem: -0 102<192 384> 102 102<128 192> 409 102<192 384> 614 102<192 448>
VStem: 128 64<102.2 204.6 511.8 614.2> 192 192<-0.200027 102.2> 384 64<102.2 409.4>
LayerCount: 2
Fore
SplineSet
128 204 m 1x78
 192 204 l 1x78
 192 102 l 1xb8
 384 102 l 1
 384 -0 l 1
 192 -0 l 1xb4
 192 102 l 1xb8
 128 102 l 1
 128 204 l 1x78
384 102 m 1xb4
 384 409 l 1
 448 409 l 1
 448 102 l 1x72
 384 102 l 1xb4
384 409 m 1
 128 409 l 1
 128 716 l 1
 448 716 l 1
 448 614 l 1
 192 614 l 1
 192 511 l 1x3a
 384 511 l 1
 384 409 l 1
EndSplineSet
EndChar

StartChar: C0036
Encoding: 54 54 54
Width: 512
Flags: HW
HStem: -0 102<192 384> 307 102<192 384> 492 20G<128 192> 512 102<192 256> 614 102<256 384>
VStem: 128 64<102.2 307 409.4 511.8> 192 64<511.8 614.2> 256 128<614.2 716.6> 384 64<102.2 307>
LayerCount: 2
Fore
SplineSet
384 102 m 1xc480
 384 -0 l 1
 192 -0 l 1xc280
 192 102 l 1
 384 102 l 1xc480
384 102 m 1
 384 307 l 1
 448 307 l 1
 448 102 l 1
 384 102 l 1
192 102 m 1xe480
 128 102 l 1
 128 512 l 1
 192 512 l 1
 192 409 l 1
 384 409 l 1
 384 307 l 1
 192 307 l 1
 192 102 l 1xe480
192 512 m 1
 192 614 l 1
 256 614 l 1
 256 512 l 1xd2
 192 512 l 1
384 716 m 1xc9
 384 614 l 1xc9
 256 614 l 1xd2
 256 716 l 1
 384 716 l 1xc9
EndSplineSet
EndChar

StartChar: C0037
Encoding: 55 55 55
Width: 512
Flags: HW
HStem: -0 21G<192 256> 307 102<256 320> 409 102<320 384> 614 102<128 384>
VStem: 192 64<-0.200027 307> 256 64<307 409.4> 320 64<409.4 511.8> 384 64<511.8 614.2>
LayerCount: 2
Fore
SplineSet
128 716 m 1xb1
 448 716 l 1
 448 511 l 1xb1
 384 511 l 1
 384 409 l 1xb2
 320 409 l 1
 320 307 l 1xd4
 256 307 l 1
 256 -0 l 1
 192 -0 l 1
 192 307 l 1
 256 307 l 1xd8
 256 409 l 1
 320 409 l 1xd4
 320 511 l 1
 384 511 l 1xb2
 384 614 l 1
 128 614 l 1
 128 716 l 1xb1
EndSplineSet
EndChar

StartChar: C0038
Encoding: 56 56 56
Width: 512
Flags: HW
HStem: -0 102<192 384> 102 205<128 192 384 448> 307 102<192 384> 409 205<128 192 384 448> 614 102<192 384>
VStem: 128 64<102.2 307 409.4 614.2> 192 192<-0.200027 102.2 307 409.4 614.2 716.6> 384 64<102.2 307 409.4 614.2>
LayerCount: 2
Fore
SplineSet
384 102 m 1x82
 384 -0 l 1x81
 192 -0 l 1x82
 192 102 l 1x84
 384 102 l 1x82
384 102 m 1x82
 384 307 l 1x42
 448 307 l 1
 448 102 l 1x41
 384 102 l 1x82
192 102 m 1x84
 128 102 l 1
 128 307 l 1
 192 307 l 1x44
 192 102 l 1x84
384 307 m 1x42
 192 307 l 1x44
 192 409 l 1x24
 384 409 l 1x22
 384 307 l 1x42
384 409 m 1x22
 384 614 l 1x12
 448 614 l 1
 448 409 l 1x11
 384 409 l 1x22
192 409 m 1x24
 128 409 l 1
 128 614 l 1
 192 614 l 1x14
 192 409 l 1x24
384 614 m 1x12
 192 614 l 1x14
 192 716 l 1
 384 716 l 1x0a
 384 614 l 1x12
EndSplineSet
EndChar

StartChar: C0039
Encoding: 57 57 57
Width: 512
Flags: HW
HStem: -0 102<192 320> 102 102<320 384> 307 102<192 384> 614 102<192 384>
VStem: 128 64<409.4 614.2> 192 128<-0.200027 102.2> 320 64<102.2 204.6> 384 64<204.6 307 409.4 614.2>
LayerCount: 2
Fore
SplineSet
192 102 m 1xb4
 320 102 l 1
 320 -0 l 1
 192 -0 l 1
 192 102 l 1xb4
320 102 m 1
 320 204 l 1
 384 204 l 1
 384 102 l 1x72
 320 102 l 1
384 204 m 1
 384 307 l 1
 192 307 l 1x75
 192 409 l 1
 384 409 l 1
 384 614 l 1
 448 614 l 1
 448 204 l 1x79
 384 204 l 1
192 409 m 1x38
 128 409 l 1
 128 614 l 1
 192 614 l 1
 192 409 l 1x38
384 614 m 1x35
 192 614 l 1x39
 192 716 l 1
 384 716 l 1
 384 614 l 1x35
EndSplineSet
EndChar

StartChar: C003a
Encoding: 58 58 58
Width: 512
Flags: HW
HStem: 102 205<192 320> 409 205<192 320>
VStem: 192 128<102.2 307 409.4 614.2>
LayerCount: 2
Fore
SplineSet
192 102 m 1
 192 307 l 1
 320 307 l 1
 320 102 l 1
 192 102 l 1
192 409 m 1
 192 614 l 1
 320 614 l 1
 320 409 l 1
 192 409 l 1
EndSplineSet
EndChar

StartChar: C003b
Encoding: 59 59 59
Width: 512
Flags: HW
HStem: -103 102<192 256> -0 21G<256 320> 409 205<192 320>
VStem: 192 64<-102.6 -0.200027> 256 64<-0.200027 102.2>
LayerCount: 2
Fore
SplineSet
192 -1 m 1xf0
 256 -1 l 1xe8
 256 -103 l 1
 192 -103 l 1
 192 -1 l 1xf0
256 -1 m 1
 256 102 l 1xe8
 192 102 l 1
 192 307 l 1xf0
 320 307 l 1
 320 -1 l 1
 256 -1 l 1
192 409 m 1xf0
 192 614 l 1xf0
 320 614 l 1
 320 409 l 1xe8
 192 409 l 1xf0
EndSplineSet
EndChar

StartChar: C003c
Encoding: 60 60 60
Width: 512
Flags: HW
HStem: -0 102<384 448> 102 102<320 384> 205 102<256 320> 307 102<192 256> 409 102<256 320> 512 102<320 384> 614 102<384 448>
VStem: 192 64<307 409.4> 256 64<204.6 307 409.4 511.8> 320 64<102.2 204.6 511.8 614.2> 384 64<-0.200027 102.2 614.2 716.6>
LayerCount: 2
Fore
SplineSet
192 409 m 1x11
 256 409 l 1x11
 256 307 l 1x21
 320 307 l 1x2080
 320 204 l 1x4080
 384 204 l 1x4040
 384 102 l 1x8040
 448 102 l 1
 448 -0 l 1
 384 -0 l 1x8020
 384 102 l 1x8040
 320 102 l 1x4040
 320 204 l 1x4080
 256 204 l 1x2080
 256 307 l 1x21
 192 307 l 1
 192 409 l 1x11
256 409 m 1
 256 511 l 1
 320 511 l 1
 320 409 l 1x0880
 256 409 l 1
320 511 m 1
 320 614 l 1
 384 614 l 1
 384 511 l 1x0440
 320 511 l 1
384 614 m 1
 384 716 l 1
 448 716 l 1
 448 614 l 1x0220
 384 614 l 1
EndSplineSet
EndChar

StartChar: C003d
Encoding: 61 61 61
Width: 512
Flags: HW
HStem: 205 102<128 448> 409 102<128 448>
VStem: 128 320<204.6 307 409.4 511.8>
LayerCount: 2
Fore
SplineSet
128 307 m 1
 448 307 l 1
 448 205 l 1
 128 205 l 1
 128 307 l 1
128 511 m 1
 448 511 l 1
 448 409 l 1
 128 409 l 1
 128 511 l 1
EndSplineSet
EndChar

StartChar: C003e
Encoding: 62 62 62
Width: 512
Flags: HW
HStem: -0 102<128 192> 102 102<192 256> 205 102<256 320> 409 102<256 320> 512 102<192 256> 614 102<128 192>
VStem: 128 64<-0.200027 102.2 614.2 716.6> 192 64<102.2 204.6 511.8 614.2> 256 64<204.6 307 409.4 511.8> 320 64<307 409.4>
LayerCount: 2
Fore
SplineSet
128 102 m 1x82
 192 102 l 1x82
 192 -0 l 1x81
 128 -0 l 1
 128 102 l 1x82
128 716 m 1x06
 192 716 l 1x06
 192 614 l 1x0a
 256 614 l 1x09
 256 511 l 1x11
 320 511 l 1
 320 409 l 1x1080
 384 409 l 1
 384 307 l 1x3040
 320 307 l 1
 320 204 l 1x3080
 256 204 l 1
 256 102 l 1x41
 192 102 l 1x82
 192 204 l 1
 256 204 l 1x41
 256 307 l 1
 320 307 l 1
 320 409 l 1
 256 409 l 1x3080
 256 511 l 1x31
 192 511 l 1x09
 192 614 l 1x0a
 128 614 l 1
 128 716 l 1x06
EndSplineSet
EndChar

StartChar: C003f
Encoding: 63 63 63
Width: 512
Flags: HW
HStem: -0 102<256 320> 205 102<256 320> 307 102<320 384> 512 102<128 192> 614 102<192 384>
VStem: 128 64<511.8 614.2> 192 192<614.2 716.6> 256 64<-0.200027 102.2 204.6 307> 320 64<307 409.4> 384 64<409.4 614.2>
LayerCount: 2
Fore
SplineSet
256 102 m 1x81
 320 102 l 1
 320 -0 l 1
 256 -0 l 1
 256 102 l 1x81
256 307 m 1xc1
 320 307 l 1
 320 205 l 1
 256 205 l 1
 256 307 l 1xc1
128 614 m 1x94
 192 614 l 1
 192 512 l 1
 128 512 l 1
 128 614 l 1x94
320 307 m 1xc1
 320 409 l 1
 384 409 l 1
 384 307 l 1xa080
 320 307 l 1xc1
384 409 m 1
 384 614 l 1xaa
 448 614 l 1
 448 409 l 1xa840
 384 409 l 1
384 614 m 1
 192 614 l 1x94
 192 716 l 1
 384 716 l 1
 384 614 l 1
EndSplineSet
EndChar

StartChar: C0040
Encoding: 64 64 64
Width: 512
Flags: HW
HStem: -0 102<192 448> 205 102<320 384> 409 102<320 384> 512 102<192 256> 614 102<256 384>
VStem: 128 64<102.2 511.8> 192 64<511.8 614.2> 256 128<614.2 716.6> 256 64<307 409.4> 384 64<307 409.4 511.8 614.2>
LayerCount: 2
Fore
SplineSet
448 102 m 1xc440
 448 -0 l 1
 192 -0 l 1xc240
 192 102 l 1
 448 102 l 1xc440
192 102 m 1xd4
 128 102 l 1
 128 511 l 1
 192 511 l 1
 192 102 l 1xd4
256 205 m 1xe8c0
 256 511 l 1xd2
 384 511 l 1xe240
 384 614 l 1xe9
 448 614 l 1
 448 205 l 1
 256 205 l 1xe8c0
384 307 m 1xe0c0
 384 409 l 1
 320 409 l 1
 320 307 l 1
 384 307 l 1xe0c0
256 511 m 1xd2
 192 511 l 1xd4
 192 614 l 1
 256 614 l 1
 256 511 l 1xd2
384 614 m 1xc9
 256 614 l 1xd2
 256 716 l 1
 384 716 l 1
 384 614 l 1xc9
EndSplineSet
EndChar

StartChar: C0041
Encoding: 65 65 65
Width: 512
Flags: HW
HStem: -0 21G<128 192 384 448> 307 102<192 384> 614 102<192 384>
VStem: 128 64<-0.200027 307 409.4 614.2> 192 192<614.2 716.6> 384 64<-0.200027 307 409.4 614.2>
LayerCount: 2
Fore
SplineSet
448 -0 m 1xe4
 384 -0 l 1
 384 307 l 1
 192 307 l 1
 192 -0 l 1
 128 -0 l 1
 128 614 l 1
 192 614 l 1
 192 409 l 1
 384 409 l 1xf4
 384 614 l 1xe8
 448 614 l 1
 448 -0 l 1xe4
384 614 m 1xe8
 192 614 l 1xf0
 192 716 l 1
 384 716 l 1
 384 614 l 1xe8
EndSplineSet
EndChar

StartChar: C0042
Encoding: 66 66 66
Width: 512
Flags: HW
HStem: -0 102<192 384> 307 102<192 384> 614 102<192 384>
VStem: 128 256<-0.200027 102.2 307 409.4 614.2 716.6> 128 64<102.2 307 409.4 614.2> 384 64<102.2 307 409.4 614.2>
LayerCount: 2
Fore
SplineSet
384 102 m 1xf0
 384 307 l 1xf0
 192 307 l 1
 192 102 l 1xe8
 384 102 l 1xf0
384 -0 m 1xe4
 128 -0 l 1xec
 128 716 l 1
 384 716 l 1
 384 614 l 1xf0
 448 614 l 1
 448 409 l 1xe4
 384 409 l 1
 384 614 l 1xf0
 192 614 l 1
 192 409 l 1xe8
 384 409 l 1
 384 307 l 1xf0
 448 307 l 1
 448 102 l 1xe4
 384 102 l 1xf0
 384 -0 l 1xe4
EndSplineSet
EndChar

StartChar: C0043
Encoding: 67 67 67
Width: 512
Flags: HW
HStem: -0 102<192 384> 102 102<384 448> 512 102<384 448> 614 102<192 384>
VStem: 128 64<102.2 614.2> 192 192<-0.200027 102.2 614.2 716.6> 384 64<102.2 204.6 511.8 614.2>
LayerCount: 2
Fore
SplineSet
384 102 m 1x84
 384 -0 l 1x82
 192 -0 l 1x84
 192 102 l 1x88
 384 102 l 1x84
384 102 m 1x84
 384 204 l 1
 448 204 l 1
 448 102 l 1x42
 384 102 l 1x84
192 102 m 1x98
 128 102 l 1x48
 128 614 l 1
 192 614 l 1
 192 102 l 1x98
384 614 m 1x24
 448 614 l 1
 448 512 l 1
 384 512 l 1x22
 384 614 l 1x24
384 614 m 1x24
 192 614 l 1x18
 192 716 l 1
 384 716 l 1x14
 384 614 l 1x24
EndSplineSet
EndChar

StartChar: C0044
Encoding: 68 68 68
Width: 512
Flags: HW
HStem: -0 102<192 320> 102 102<320 384> 512 102<320 384> 614 102<192 320>
VStem: 128 192<-0.200027 102.2 614.2 716.6> 128 64<102.2 614.2> 320 64<102.2 204.6 511.8 614.2> 384 64<204.6 511.8>
LayerCount: 2
Fore
SplineSet
320 102 m 1x98
 320 204 l 1
 384 204 l 1
 384 512 l 1
 320 512 l 1x62
 320 614 l 1x68
 192 614 l 1
 192 102 l 1x94
 320 102 l 1x98
320 -0 m 1x82
 128 -0 l 1x86
 128 716 l 1
 320 716 l 1x98
 320 614 l 1x28
 384 614 l 1
 384 512 l 1x22
 448 512 l 1
 448 204 l 1x61
 384 204 l 1
 384 102 l 1x62
 320 102 l 1x88
 320 -0 l 1x82
EndSplineSet
EndChar

StartChar: C0045
Encoding: 69 69 69
Width: 512
Flags: HW
HStem: -0 102<192 448> 307 102<192 384> 614 102<192 448>
VStem: 128 64<102.2 307 409.4 614.2>
LayerCount: 2
Fore
SplineSet
448 102 m 1
 448 -0 l 1
 128 -0 l 1
 128 716 l 1
 448 716 l 1
 448 614 l 1
 192 614 l 1
 192 409 l 1
 384 409 l 1
 384 307 l 1
 192 307 l 1
 192 102 l 1
 448 102 l 1
EndSplineSet
EndChar

StartChar: C0046
Encoding: 70 70 70
Width: 512
Flags: HW
HStem: -0 21G<128 192> 307 102<192 384> 614 102<192 448>
VStem: 128 64<-0.200027 307 409.4 614.2>
LayerCount: 2
Fore
SplineSet
192 -0 m 1
 128 -0 l 1
 128 716 l 1
 448 716 l 1
 448 614 l 1
 192 614 l 1
 192 409 l 1
 384 409 l 1
 384 307 l 1
 192 307 l 1
 192 -0 l 1
EndSplineSet
EndChar

StartChar: C0047
Encoding: 71 71 71
Width: 512
Flags: HW
HStem: -0 102<192 384> 307 102<320 384> 614 102<192 448>
VStem: 128 64<102.2 614.2> 192 256<-0.200027 102.2 614.2 716.6> 320 128<307 409.4> 384 64<102.2 307>
LayerCount: 2
Fore
SplineSet
320 409 m 1xe4
 448 409 l 1xe4
 448 -0 l 1
 192 -0 l 1xe8
 192 102 l 1
 384 102 l 1
 384 307 l 1xf2
 320 307 l 1
 320 409 l 1xe4
192 102 m 1xf0
 128 102 l 1
 128 614 l 1
 192 614 l 1
 192 102 l 1xf0
448 716 m 1xe8
 448 614 l 1xe8
 192 614 l 1xf0
 192 716 l 1
 448 716 l 1xe8
EndSplineSet
EndChar

StartChar: C0048
Encoding: 72 72 72
Width: 512
Flags: HW
HStem: -0 21G<128 192 384 448> 307 102<192 384> 697 20G<128 192 384 448>
VStem: 128 64<-0.200027 307 409.4 716.6> 384 64<-0.200027 307 409.4 716.6>
LayerCount: 2
Fore
SplineSet
448 -0 m 1
 384 -0 l 1
 384 307 l 1
 192 307 l 1
 192 -0 l 1
 128 -0 l 1
 128 717 l 1
 192 717 l 1
 192 409 l 1
 384 409 l 1
 384 717 l 1
 448 717 l 1
 448 -0 l 1
EndSplineSet
EndChar

StartChar: C0049
Encoding: 73 73 73
Width: 512
Flags: HW
HStem: -0 102<192 256 320 384> 614 102<192 256 320 384>
VStem: 192 192<-0.200027 102.2 614.2 716.6>
LayerCount: 2
Fore
SplineSet
192 102 m 1
 256 102 l 1
 256 614 l 1
 192 614 l 1
 192 716 l 1
 384 716 l 1
 384 614 l 1
 320 614 l 1
 320 102 l 1
 384 102 l 1
 384 -0 l 1
 192 -0 l 1
 192 102 l 1
EndSplineSet
EndChar

StartChar: C004a
Encoding: 74 74 74
Width: 512
Flags: HW
HStem: -0 102<192 320> 102 102<128 192> 614 102<256 320 384 448>
VStem: 128 64<102.2 204.6> 192 128<-0.200027 102.2> 256 192<614.2 716.6>
LayerCount: 2
Fore
SplineSet
128 204 m 1x70
 192 204 l 1x70
 192 102 l 1xb0
 320 102 l 1
 320 -0 l 1
 192 -0 l 1xa8
 192 102 l 1xb0
 128 102 l 1
 128 204 l 1x70
256 716 m 1xa4
 448 716 l 1
 448 614 l 1
 384 614 l 1
 384 102 l 1x64
 320 102 l 1
 320 614 l 1xa8
 256 614 l 1
 256 716 l 1xa4
EndSplineSet
EndChar

StartChar: C004b
Encoding: 75 75 75
Width: 512
Flags: HW
HStem: -0 102<384 448> 102 102<320 384> 205 102<256 320> 307 102<192 256> 409 102<256 320> 512 102<320 384> 614 102<384 448>
VStem: 128 128<307 409.4> 128 64<-0.200027 307 409.4 716.6> 256 64<204.6 307 409.4 511.8> 320 64<102.2 204.6 511.8 614.2> 384 64<-0.200027 102.2 614.2 716.6>
LayerCount: 2
Fore
SplineSet
384 102 m 1x8020
 448 102 l 1
 448 -0 l 1
 384 -0 l 1x8010
 384 102 l 1x8020
384 102 m 1x8020
 320 102 l 1x4020
 320 204 l 1x4040
 384 204 l 1x4020
 384 102 l 1x8020
192 -0 m 1x9080
 128 -0 l 1
 128 716 l 1
 192 716 l 1
 192 409 l 1x9280
 256 409 l 1x93
 256 307 l 1x21
 320 307 l 1x2040
 320 204 l 1x4040
 256 204 l 1x2040
 256 307 l 1x21
 192 307 l 1
 192 -0 l 1x9080
256 409 m 1x11
 256 511 l 1
 320 511 l 1
 320 409 l 1x0840
 256 409 l 1x11
320 511 m 1
 320 614 l 1
 384 614 l 1
 384 511 l 1x0420
 320 511 l 1
384 614 m 1
 384 716 l 1
 448 716 l 1
 448 614 l 1x0210
 384 614 l 1
EndSplineSet
EndChar

StartChar: C004c
Encoding: 76 76 76
Width: 512
Flags: HW
HStem: -0 102<192 448> 697 20G<128 192>
VStem: 128 64<102.2 716.6>
LayerCount: 2
Fore
SplineSet
448 102 m 1
 448 -0 l 1
 128 -0 l 1
 128 717 l 1
 192 717 l 1
 192 512 192 307 192 102 c 1
 448 102 l 1
EndSplineSet
EndChar

StartChar: C004d
Encoding: 77 77 77
Width: 512
Flags: HW
HStem: -0 21G<128 192 384 448> 512 102<192 256 320 384> 697 20G<128 192 384 448>
VStem: 128 128<511.8 614.2> 128 64<-0.200027 511.8 614.2 716.6> 256 64<307 511.8> 320 128<511.8 614.2> 384 64<-0.200027 511.8 614.2 716.6>
LayerCount: 2
Fore
SplineSet
448 -0 m 1xe1
 384 -0 l 1
 384 512 l 1
 320 512 l 1
 320 307 l 1
 256 307 l 1xe5
 256 512 l 1xf0
 320 512 l 1xe4
 320 614 l 1xe2
 384 614 l 1
 384 717 l 1
 448 717 l 1
 448 -0 l 1xe1
192 -0 m 1xe8
 128 -0 l 1
 128 717 l 1
 192 717 l 1
 192 614 l 1xe8
 256 614 l 1
 256 512 l 1xf0
 192 512 l 1
 192 -0 l 1xe8
EndSplineSet
EndChar

StartChar: C004e
Encoding: 78 78 78
Width: 512
Flags: HW
HStem: -0 21G<128 192 384 448> 205 102<320 384> 307 102<256 320> 409 102<192 256> 697 20G<128 192 384 448>
VStem: 128 128<409.4 511.8> 128 64<-0.200027 409.4 511.8 716.6> 256 64<307 409.4> 320 128<204.6 307> 384 64<-0.200027 204.6 307 716.6>
LayerCount: 2
Fore
SplineSet
448 -0 m 1xc940
 384 -0 l 1
 384 205 l 1xc940
 320 205 l 1xc880
 320 307 l 1
 384 307 l 1
 384 717 l 1
 448 717 l 1
 448 -0 l 1xc940
192 -0 m 1x9a
 128 -0 l 1
 128 717 l 1
 192 717 l 1
 192 511 l 1x9a
 256 511 l 1x9c
 256 409 l 1xac
 320 409 l 1xa9
 320 307 l 1xc9
 256 307 l 1xa9
 256 409 l 1xac
 192 409 l 1
 192 -0 l 1x9a
EndSplineSet
EndChar

StartChar: C004f
Encoding: 79 79 79
Width: 512
Flags: HW
HStem: -0 102<192 384> 614 102<192 384>
VStem: 128 64<102.2 614.2> 192 192<-0.200027 102.2 614.2 716.6> 384 64<102.2 614.2>
LayerCount: 2
Fore
SplineSet
384 102 m 1xd0
 384 -0 l 1xc8
 192 -0 l 1xd0
 192 102 l 1xe0
 384 102 l 1xd0
384 102 m 1xd0
 384 614 l 1xd0
 448 614 l 1
 448 102 l 1xc8
 384 102 l 1xd0
192 102 m 1xe0
 128 102 l 1
 128 614 l 1
 192 614 l 1
 192 102 l 1xe0
384 614 m 1xd0
 192 614 l 1xe0
 192 716 l 1
 384 716 l 1
 384 614 l 1xd0
EndSplineSet
EndChar

StartChar: C0050
Encoding: 80 80 80
Width: 512
Flags: HW
HStem: -0 21G<128 192> 307 102<192 384> 614 102<192 384>
VStem: 128 256<307 409.4 614.2 716.6> 128 64<-0.200027 307 409.4 614.2> 384 64<409.4 614.2>
LayerCount: 2
Fore
SplineSet
192 -0 m 1xe8
 128 -0 l 1xe8
 128 716 l 1
 384 716 l 1
 384 614 l 1xf0
 448 614 l 1
 448 409 l 1xe4
 384 409 l 1
 384 614 l 1xf0
 192 614 l 1
 192 409 l 1xe8
 384 409 l 1
 384 307 l 1xf0
 192 307 l 1
 192 -0 l 1xe8
EndSplineSet
EndChar

StartChar: C0051
Encoding: 81 81 81
Width: 512
Flags: HW
HStem: -0 102<192 320 384 448> 102 102<320 384> 205 102<256 320> 614 102<192 384>
VStem: 128 64<102.2 614.2> 192 128<-0.200027 102.2> 256 64<204.6 307> 320 64<102.2 204.6> 384 64<-0.200027 102.2 204.6 614.2>
LayerCount: 2
Fore
SplineSet
256 307 m 1x32
 320 307 l 1x32
 320 204 l 1x52
 384 204 l 1x51
 384 102 l 1x91
 448 102 l 1
 448 -0 l 1
 384 -0 l 1x9080
 384 102 l 1x91
 320 102 l 1
 320 -0 l 1
 192 -0 l 1x94
 192 102 l 1x98
 320 102 l 1x94
 320 204 l 1x52
 256 204 l 1
 256 307 l 1x32
192 102 m 1x98
 128 102 l 1x58
 128 614 l 1
 192 614 l 1
 192 102 l 1x98
384 204 m 1x51
 384 614 l 1
 448 614 l 1
 448 204 l 1x3080
 384 204 l 1x51
384 614 m 1
 192 614 l 1x1880
 192 716 l 1x14
 384 716 l 1
 384 614 l 1
EndSplineSet
EndChar

StartChar: C0052
Encoding: 82 82 82
Width: 512
Flags: HW
HStem: -0 102<384 448> 102 102<320 384> 307 102<192 256 320 384> 614 102<192 384>
VStem: 128 64<-0.200027 307 409.4 614.2> 320 64<102.2 204.6> 384 64<-0.200027 102.2 409.4 614.2>
LayerCount: 2
Fore
SplineSet
384 102 m 1xbc
 448 102 l 1
 448 -0 l 1
 384 -0 l 1xba
 384 102 l 1xbc
384 102 m 1xbc
 320 102 l 1
 320 204 l 1
 384 204 l 1x7c
 384 102 l 1xbc
192 -0 m 1xbc
 128 -0 l 1
 128 716 l 1
 384 716 l 1
 384 614 l 1
 448 614 l 1
 448 409 l 1
 384 409 l 1
 384 614 l 1
 192 614 l 1
 192 409 l 1
 384 409 l 1
 384 307 l 1xba
 320 307 l 1
 320 204 l 1
 256 204 l 1x7c
 256 307 l 1
 192 307 l 1
 192 -0 l 1xbc
EndSplineSet
EndChar

StartChar: C0053
Encoding: 83 83 83
Width: 512
Flags: HW
HStem: -0 102<192 384> 102 102<128 192> 307 102<192 384> 512 102<384 448> 614 102<192 384>
VStem: 128 64<102.2 204.6 409.4 614.2> 192 192<-0.200027 102.2 307 409.4 614.2 716.6> 384 64<102.2 307 511.8 614.2>
LayerCount: 2
Fore
SplineSet
128 204 m 1x64
 192 204 l 1x64
 192 102 l 1xa4
 384 102 l 1xa2
 384 -0 l 1xa1
 192 -0 l 1xa2
 192 102 l 1xa4
 128 102 l 1
 128 204 l 1x64
384 102 m 1xa2
 384 307 l 1xa2
 448 307 l 1
 448 102 l 1x61
 384 102 l 1xa2
384 307 m 1
 192 307 l 1x22
 192 409 l 1x24
 384 409 l 1
 384 307 l 1
192 409 m 1x2c
 128 409 l 1
 128 614 l 1
 192 614 l 1
 192 409 l 1x2c
384 614 m 1x32
 448 614 l 1
 448 512 l 1
 384 512 l 1x31
 384 614 l 1x32
384 614 m 1x32
 192 614 l 1x2c
 192 716 l 1
 384 716 l 1x2a
 384 614 l 1x32
EndSplineSet
EndChar

StartChar: C0054
Encoding: 84 84 84
Width: 512
Flags: HW
HStem: -0 21G<256 320> 614 102<128 256 320 448>
VStem: 256 64<-0.200027 614.2>
LayerCount: 2
Fore
SplineSet
128 716 m 1
 448 716 l 1
 448 614 l 1
 320 614 l 1
 320 -0 l 1
 256 -0 l 1
 256 614 l 1
 128 614 l 1
 128 716 l 1
EndSplineSet
EndChar

StartChar: C0055
Encoding: 85 85 85
Width: 512
Flags: HW
HStem: -0 102<192 384> 697 20G<128 192 384 448>
VStem: 128 64<102.2 716.6> 192 192<-0.200027 102.2> 384 64<102.2 716.6>
LayerCount: 2
Fore
SplineSet
384 102 m 1xd0
 384 -0 l 1
 192 -0 l 1xd0
 192 102 l 1xe0
 384 102 l 1xd0
384 102 m 1
 384 307 384 512 384 717 c 1
 448 717 l 1
 448 512 448 307 448 102 c 1xc8
 384 102 l 1
192 102 m 1xe0
 128 102 l 1
 128 307 128 512 128 717 c 1
 192 717 l 1
 192 512 192 307 192 102 c 1xe0
EndSplineSet
EndChar

StartChar: C0056
Encoding: 86 86 86
Width: 512
Flags: HW
HStem: -0 21G<256 320> 205 205<192 256 320 384> 697 20G<128 192 384 448>
VStem: 128 64<409.4 716.6> 192 64<204.6 409.4> 256 64<-0.200027 204.6> 320 64<204.6 409.4> 384 64<409.4 716.6>
LayerCount: 2
Fore
SplineSet
320 -0 m 1xe4
 256 -0 l 1xe4
 256 205 l 1xe8
 320 205 l 1
 320 -0 l 1xe4
320 205 m 1
 320 410 l 1
 384 410 l 1
 384 205 l 1xe2
 320 205 l 1
256 205 m 1xe8
 192 205 l 1xe8
 192 410 l 1xf0
 256 410 l 1
 256 205 l 1xe8
384 410 m 1xe2
 384 717 l 1
 448 717 l 1
 448 410 l 1xe1
 384 410 l 1xe2
192 410 m 1xf0
 128 410 l 1
 128 717 l 1
 192 717 l 1
 192 410 l 1xf0
EndSplineSet
EndChar

StartChar: C0057
Encoding: 87 87 87
Width: 512
Flags: HW
HStem: -0 102<192 256 320 384> 697 20G<128 192 384 448>
VStem: 128 64<102.2 716.6> 192 64<-0.200027 102.2> 256 64<102.2 409.4> 320 64<-0.200027 102.2> 384 64<102.2 716.6>
LayerCount: 2
Fore
SplineSet
384 102 m 1xc4
 384 -0 l 1
 320 -0 l 1xc4
 320 102 l 1xc8
 384 102 l 1xc4
384 102 m 1
 384 307 384 512 384 717 c 1
 448 717 l 1
 448 512 448 307 448 102 c 1xc2
 384 102 l 1
320 102 m 1xc8
 256 102 l 1
 256 -0 l 1
 192 -0 l 1xd0
 192 102 l 1xe0
 256 102 l 1xd0
 256 409 l 1
 320 409 l 1
 320 102 l 1xc8
192 102 m 1xe0
 128 102 l 1
 128 307 128 512 128 717 c 1
 192 717 l 1
 192 512 192 307 192 102 c 1xe0
EndSplineSet
EndChar

StartChar: C0058
Encoding: 88 88 88
Width: 512
Flags: HW
HStem: -0 205<128 192 384 448> 205 102<192 256 320 384> 307 102<256 320> 409 102<192 256 320 384> 512 205<128 192 384 448>
VStem: 128 64<-0.200027 204.6 511.8 716.6> 192 64<204.6 307 409.4 511.8> 256 64<307 409.4> 320 64<204.6 307 409.4 511.8> 384 64<-0.200027 204.6 511.8 716.6>
LayerCount: 2
Fore
SplineSet
448 -0 m 1x8040
 384 -0 l 1x8040
 384 205 l 1x8080
 448 205 l 1
 448 -0 l 1x8040
192 -0 m 1x82
 128 -0 l 1
 128 205 l 1
 192 205 l 1x84
 192 -0 l 1x82
384 205 m 1x8080
 320 205 l 1x4080
 320 307 l 1x41
 384 307 l 1x4080
 384 205 l 1x8080
192 205 m 1x84
 192 307 l 1
 256 307 l 1
 256 205 l 1x42
 192 205 l 1x84
320 307 m 1x41
 256 307 l 1x42
 256 409 l 1x22
 320 409 l 1x21
 320 307 l 1x41
320 409 m 1x21
 320 511 l 1
 384 511 l 1
 384 409 l 1x1080
 320 409 l 1x21
256 409 m 1x22
 192 409 l 1x12
 192 511 l 1x14
 256 511 l 1x12
 256 409 l 1x22
384 511 m 1x1080
 384 717 l 1
 448 717 l 1
 448 511 l 1x0840
 384 511 l 1x1080
192 511 m 1x14
 128 511 l 1
 128 717 l 1
 192 717 l 1x0c
 192 511 l 1x14
EndSplineSet
EndChar

StartChar: C0059
Encoding: 89 89 89
Width: 512
Flags: HW
HStem: -0 21G<256 320> 409 102<192 256 320 384> 512 205<128 192 384 448>
VStem: 128 64<511.8 716.6> 192 64<409.4 511.8> 256 64<-0.200027 409.4> 320 64<409.4 511.8> 384 64<511.8 716.6>
LayerCount: 2
Fore
SplineSet
320 -0 m 1xc4
 256 -0 l 1xc4
 256 409 l 1xc8
 320 409 l 1
 320 -0 l 1xc4
320 409 m 1
 320 511 l 1
 384 511 l 1
 384 409 l 1xc2
 320 409 l 1
256 409 m 1xc8
 192 409 l 1xc8
 192 511 l 1xd0
 256 511 l 1
 256 409 l 1xc8
384 511 m 1xc2
 384 717 l 1
 448 717 l 1
 448 511 l 1xa1
 384 511 l 1xc2
192 511 m 1xd0
 128 511 l 1
 128 717 l 1
 192 717 l 1xb0
 192 511 l 1xd0
EndSplineSet
EndChar

StartChar: C005a
Encoding: 90 90 90
Width: 512
Flags: HW
HStem: -0 102<192 448> 205 102<192 256> 307 102<256 320> 409 102<320 384> 614 102<128 384>
VStem: 128 64<102.2 204.6> 192 64<204.6 307> 256 64<307 409.4> 320 64<409.4 511.8> 384 64<511.8 614.2>
LayerCount: 2
Fore
SplineSet
128 716 m 1x9c40
 448 716 l 1
 448 511 l 1x9c40
 384 511 l 1
 384 409 l 1x9880
 320 409 l 1
 320 307 l 1xa9
 256 307 l 1
 256 205 l 1xca
 192 205 l 1
 192 102 l 1
 448 102 l 1
 448 -0 l 1
 128 -0 l 1
 128 205 l 1
 192 205 l 1xcc40
 192 307 l 1
 256 307 l 1xca
 256 409 l 1
 320 409 l 1xa9
 320 511 l 1
 384 511 l 1x9880
 384 614 l 1
 128 614 l 1
 128 716 l 1x9c40
EndSplineSet
EndChar

StartChar: C005b
Encoding: 91 91 91
Width: 512
Flags: HW
HStem: -0 102<320 448> 614 102<320 448>
VStem: 256 192<-0.200027 102.2 614.2 716.6> 256 64<102.2 614.2>
LayerCount: 2
Fore
SplineSet
448 102 m 1xe0
 448 -0 l 1xe0
 256 -0 l 1xd0
 256 716 l 1
 448 716 l 1
 448 614 l 1xe0
 320 614 l 1
 320 102 l 1xd0
 448 102 l 1xe0
EndSplineSet
EndChar

StartChar: C005c
Encoding: 92 92 92
Width: 512
Flags: HW
HStem: -0 102<448 512> 102 102<384 448> 205 102<320 384> 307 102<256 320> 409 102<192 256> 512 102<128 192> 614 102<64 128>
VStem: 64 64<614.2 716.6> 128 64<511.8 614.2> 192 64<409.4 511.8> 256 64<307 409.4> 320 64<204.6 307> 384 64<102.2 204.6> 448 64<-0.200027 102.2>
LayerCount: 2
Fore
SplineSet
64 716 m 1x03
 128 716 l 1x03
 128 614 l 1x05
 192 614 l 1x0480
 192 511 l 1x0880
 256 511 l 1x0840
 256 409 l 1x1040
 320 409 l 1x1020
 320 307 l 1x2020
 384 307 l 1x2010
 384 204 l 1x4010
 448 204 l 1x4008
 448 102 l 1x8008
 512 102 l 1
 512 -0 l 1
 448 -0 l 1x8004
 448 102 l 1x8008
 384 102 l 1x4008
 384 204 l 1x4010
 320 204 l 1x2010
 320 307 l 1x2020
 256 307 l 1x1020
 256 409 l 1x1040
 192 409 l 1x0840
 192 511 l 1x0880
 128 511 l 1x0480
 128 614 l 1x05
 64 614 l 1
 64 716 l 1x03
EndSplineSet
EndChar

StartChar: C005d
Encoding: 93 93 93
Width: 512
Flags: HW
HStem: -0 102<128 256> 614 102<128 256>
VStem: 128 192<-0.200027 102.2 614.2 716.6> 256 64<102.2 614.2>
LayerCount: 2
Fore
SplineSet
128 102 m 1xe0
 256 102 l 1
 256 614 l 1xd0
 128 614 l 1
 128 716 l 1
 320 716 l 1xe0
 320 -0 l 1xd0
 128 -0 l 1
 128 102 l 1xe0
EndSplineSet
EndChar

StartChar: C005e
Encoding: 94 94 94
Width: 512
Flags: HW
HStem: 409 102<128 192 384 448> 512 102<192 256 320 384> 614 102<256 320>
VStem: 128 64<409.4 511.8> 192 64<511.8 614.2> 256 64<614.2 716.6> 320 64<511.8 614.2> 384 64<409.4 511.8>
LayerCount: 2
Fore
SplineSet
128 511 m 1x90
 192 511 l 1
 192 409 l 1
 128 409 l 1
 128 511 l 1x90
384 511 m 1x82
 448 511 l 1
 448 409 l 1
 384 409 l 1x81
 384 511 l 1x82
384 511 m 1x82
 320 511 l 1x42
 320 614 l 1x44
 384 614 l 1x42
 384 511 l 1x82
192 511 m 1x90
 192 614 l 1
 256 614 l 1
 256 511 l 1x48
 192 511 l 1x90
320 614 m 1x44
 256 614 l 1x48
 256 716 l 1
 320 716 l 1x24
 320 614 l 1x44
EndSplineSet
EndChar

StartChar: C005f
Encoding: 95 95 95
Width: 512
Flags: HW
HStem: -0 102<128 448>
VStem: 128 320<-0.200027 102.2>
LayerCount: 2
Fore
SplineSet
128 102 m 1
 448 102 l 1
 448 -0 l 1
 128 -0 l 1
 128 102 l 1
EndSplineSet
EndChar

StartChar: C0060
Encoding: 96 96 96
Width: 512
Flags: HW
HStem: 409 102<320 384> 512 21G<256 320> 697 20G<256 320>
VStem: 256 64<511.8 716.6> 320 64<409.4 511.8>
LayerCount: 2
Fore
SplineSet
320 511 m 1xb0
 384 511 l 1
 384 409 l 1
 320 409 l 1xa8
 320 511 l 1xb0
320 511 m 1xb0
 256 511 l 1x70
 256 717 l 1
 320 717 l 1
 320 511 l 1xb0
EndSplineSet
EndChar

StartChar: C0061
Encoding: 97 97 97
Width: 512
Flags: HW
HStem: -0 102<192 384> 205 102<192 384> 409 102<192 384>
VStem: 128 64<102.2 204.6> 192 192<409.4 511.8> 384 64<102.2 204.6 307 409.4>
LayerCount: 2
Fore
SplineSet
128 205 m 1xf0
 192 205 l 1xf0
 192 307 l 1xe8
 384 307 l 1xe4
 384 409 l 1xe8
 448 409 l 1
 448 -0 l 1xe4
 192 -0 l 1xe8
 192 102 l 1
 128 102 l 1
 128 205 l 1xf0
192 511 m 1xe8
 384 511 l 1
 384 409 l 1
 192 409 l 1
 192 511 l 1xe8
384 102 m 1xf4
 384 205 l 1
 192 205 l 1
 192 102 l 1
 384 102 l 1xf4
EndSplineSet
EndChar

StartChar: C0062
Encoding: 98 98 98
Width: 512
Flags: HW
HStem: -0 102<192 384> 409 102<192 384> 697 20G<128 192>
VStem: 128 256<-0.200027 102.2 409.4 511.8> 128 64<102.2 409.4 511.8 716.6> 384 64<102.2 409.4>
LayerCount: 2
Fore
SplineSet
384 102 m 1xf0
 384 409 l 1xf0
 192 409 l 1
 192 102 l 1xe8
 384 102 l 1xf0
384 -0 m 1
 128 -0 l 1xf0
 128 717 l 1
 192 717 l 1
 192 511 l 1xe8
 384 511 l 1
 384 409 l 1xf0
 448 409 l 1
 448 102 l 1xe4
 384 102 l 1
 384 -0 l 1
EndSplineSet
EndChar

StartChar: C0063
Encoding: 99 99 99
Width: 512
Flags: HW
HStem: -0 102<192 384> 307 102<384 448> 409 102<192 384>
VStem: 128 64<102.2 409.4> 192 192<-0.200027 102.2 409.4 511.8> 384 64<307 409.4>
LayerCount: 2
Fore
SplineSet
384 102 m 1x88
 384 -0 l 1
 192 -0 l 1x88
 192 102 l 1x90
 384 102 l 1x88
192 102 m 1xb0
 128 102 l 1
 128 409 l 1
 192 409 l 1
 192 102 l 1xb0
384 409 m 1xc8
 448 409 l 1
 448 307 l 1
 384 307 l 1xc4
 384 409 l 1xc8
384 409 m 1xc8
 192 409 l 1xb0
 192 511 l 1
 384 511 l 1xa8
 384 409 l 1xc8
EndSplineSet
EndChar

StartChar: C0064
Encoding: 100 100 100
Width: 512
Flags: HW
HStem: -0 102<192 384> 409 102<192 384> 697 20G<384 448>
VStem: 128 64<102.2 409.4> 192 256<-0.200027 102.2 409.4 511.8> 384 64<102.2 409.4 511.8 716.6>
LayerCount: 2
Fore
SplineSet
448 -0 m 1xe8
 192 -0 l 1xe8
 192 102 l 1
 128 102 l 1
 128 409 l 1
 192 409 l 1xf0
 192 511 l 1xe8
 384 511 l 1
 384 717 l 1
 448 717 l 1xe4
 448 -0 l 1xe8
384 102 m 1xf4
 384 409 l 1
 192 409 l 1
 192 102 l 1
 384 102 l 1xf4
EndSplineSet
EndChar

StartChar: C0065
Encoding: 101 101 101
Width: 512
Flags: HW
HStem: -0 102<192 384> 205 102<192 384> 409 102<192 384>
VStem: 128 64<102.2 204.6 307 409.4> 192 192<-0.200027 102.2 409.4 511.8> 384 64<307 409.4>
LayerCount: 2
Fore
SplineSet
384 102 m 1xe8
 384 -0 l 1
 192 -0 l 1xe8
 192 102 l 1xf0
 384 102 l 1xe8
192 102 m 1xf4
 128 102 l 1
 128 409 l 1
 192 409 l 1
 192 307 l 1
 384 307 l 1xf4
 384 409 l 1xe8
 448 409 l 1
 448 341 448 273 448 205 c 1
 192 205 l 1
 192 102 l 1xf4
384 409 m 1xe8
 192 409 l 1xf0
 192 511 l 1
 384 511 l 1
 384 409 l 1xe8
EndSplineSet
EndChar

StartChar: C0066
Encoding: 102 102 102
Width: 512
Flags: HW
HStem: -0 21G<192 256> 409 102<128 192 256 320> 512 102<384 448> 614 102<256 384>
VStem: 128 192<409.4 511.8> 192 64<-0.200027 409.4 511.8 614.2> 256 128<614.2 716.6> 384 64<511.8 614.2>
LayerCount: 2
Fore
SplineSet
128 511 m 1xd8
 192 511 l 1
 192 614 l 1
 256 614 l 1
 256 511 l 1xd4
 320 511 l 1
 320 409 l 1xd8
 256 409 l 1
 256 -0 l 1
 192 -0 l 1
 192 409 l 1xd4
 128 409 l 1
 128 511 l 1xd8
384 614 m 1xa2
 448 614 l 1
 448 511 l 1
 384 511 l 1xa1
 384 614 l 1xa2
384 614 m 1xa2
 256 614 l 1x94
 256 716 l 1
 384 716 l 1x92
 384 614 l 1xa2
EndSplineSet
EndChar

StartChar: C0067
Encoding: 103 103 103
Width: 512
Flags: HW
HStem: -205 102<192 384> -0 102<192 320> 102 102<320 384> 307 102<320 384> 409 102<192 320>
VStem: 128 64<102.2 409.4> 192 192<-205 -102.6> 192 128<-0.200027 102.2 409.4 511.8> 320 128<102.2 204.6 307 409.4> 384 64<-102.6 102.2 204.6 307 409.4 511.8>
LayerCount: 2
Fore
SplineSet
192 -103 m 1x82
 384 -103 l 1
 384 -205 l 1
 192 -205 l 1
 192 -103 l 1x82
384 -103 m 1
 384 102 l 1xa840
 320 102 l 1
 320 -0 l 1
 192 -0 l 1xc140
 192 102 l 1xc4
 320 102 l 1xc1
 320 204 l 1xa080
 384 204 l 1
 384 307 l 1xb040
 320 307 l 1xb080
 320 409 l 1
 384 409 l 1xb140
 384 511 l 1
 448 511 l 1
 448 -103 l 1x8940
 384 -103 l 1
192 102 m 1xcc
 128 102 l 1xa4
 128 409 l 1
 192 409 l 1
 192 102 l 1xcc
320 409 m 1x91
 192 409 l 1x8c
 192 511 l 1
 320 511 l 1x89
 320 409 l 1x91
EndSplineSet
EndChar

StartChar: C0068
Encoding: 104 104 104
Width: 512
Flags: HW
HStem: -0 21G<128 192 384 448> 409 102<192 384> 697 20G<128 192>
VStem: 128 64<-0.200027 409.4 511.8 716.6> 384 64<-0.200027 409.4>
LayerCount: 2
Fore
SplineSet
448 -0 m 1
 384 -0 l 1
 384 409 l 1
 448 409 l 1
 448 -0 l 1
192 -0 m 1
 128 -0 l 1
 128 717 l 1
 192 717 l 1
 192 511 l 1
 384 511 l 1
 384 409 l 1
 192 409 l 1
 192 -0 l 1
EndSplineSet
EndChar

StartChar: C0069
Encoding: 105 105 105
Width: 512
Flags: HW
HStem: -0 102<192 256 320 384> 409 102<192 256> 614 102<256 320>
VStem: 192 192<-0.200027 102.2> 192 128<409.4 511.8> 256 64<102.2 409.4 614.2 716.6>
LayerCount: 2
Fore
SplineSet
192 102 m 1xf0
 256 102 l 1
 256 409 l 1xe4
 192 409 l 1
 192 511 l 1
 320 511 l 1xe8
 320 102 l 1xe4
 384 102 l 1
 384 -0 l 1
 192 -0 l 1
 192 102 l 1xf0
256 716 m 1
 320 716 l 1
 320 614 l 1
 256 614 l 1
 256 716 l 1
EndSplineSet
EndChar

StartChar: C006a
Encoding: 106 106 106
Width: 512
Flags: HW
HStem: -205 102<192 384> -103 102<128 192> 492 20G<384 448> 614 102<384 448>
VStem: 128 64<-102.6 -0.200027> 192 192<-205 -102.6> 384 64<-102.6 511.8 614.2 716.6>
LayerCount: 2
Fore
SplineSet
128 -1 m 1x78
 192 -1 l 1x74
 192 -103 l 1xb8
 384 -103 l 1
 384 -205 l 1
 192 -205 l 1xb4
 192 -103 l 1xb8
 128 -103 l 1
 128 -1 l 1x78
384 716 m 1x32
 448 716 l 1
 448 614 l 1
 384 614 l 1
 384 716 l 1x32
384 -103 m 1xb4
 384 102 384 307 384 512 c 1
 448 512 l 1
 448 307 448 102 448 -103 c 1x72
 384 -103 l 1xb4
EndSplineSet
EndChar

StartChar: C006b
Encoding: 107 107 107
Width: 512
Flags: HW
HStem: -0 21G<128 192 384 448> 205 102<192 256 320 384> 307 102<256 320> 409 102<320 384> 697 20G<128 192>
VStem: 128 128<204.6 307> 128 64<-0.200027 204.6 307 716.6> 256 64<307 409.4> 320 64<204.6 307 409.4 511.8> 384 64<-0.200027 204.6>
LayerCount: 2
Fore
SplineSet
448 -0 m 1xc840
 384 -0 l 1xc840
 384 205 l 1xc880
 448 205 l 1
 448 -0 l 1xc840
192 -0 m 1xca
 128 -0 l 1
 128 717 l 1
 192 717 l 1
 192 307 l 1xca
 256 307 l 1
 256 205 l 1xcc
 192 205 l 1
 192 -0 l 1xca
384 205 m 1xc880
 320 205 l 1xc880
 320 307 l 1xc9
 384 307 l 1
 384 205 l 1xc880
320 307 m 1xc9
 256 307 l 1xcc
 256 409 l 1
 320 409 l 1xa9
 320 307 l 1xc9
320 409 m 1xa9
 320 511 l 1
 384 511 l 1
 384 409 l 1x9880
 320 409 l 1xa9
EndSplineSet
EndChar

StartChar: C006c
Encoding: 108 108 108
Width: 512
Flags: HW
HStem: -0 102<192 256 320 384> 614 102<192 256>
VStem: 192 192<-0.200027 102.2> 192 128<614.2 716.6> 256 64<102.2 614.2>
LayerCount: 2
Fore
SplineSet
192 102 m 1xe0
 256 102 l 1
 256 614 l 1xc8
 192 614 l 1
 192 716 l 1
 320 716 l 1xd0
 320 102 l 1xc8
 384 102 l 1
 384 -0 l 1
 192 -0 l 1
 192 102 l 1xe0
EndSplineSet
EndChar

StartChar: C006d
Encoding: 109 109 109
Width: 512
Flags: HW
HStem: -0 21G<128 192 256 320 384 448> 409 102<192 256 320 384>
VStem: 128 128<409.4 511.8> 128 64<-0.200027 409.4> 256 64<-0.200027 409.4> 320 64<409.4 511.8> 384 64<-0.200027 409.4>
LayerCount: 2
Fore
SplineSet
448 -0 m 1xc2
 384 -0 l 1xc2
 384 409 l 1xc4
 448 409 l 1
 448 -0 l 1xc2
320 -0 m 1xc8
 256 -0 l 1xc8
 256 409 l 1xe0
 320 409 l 1
 320 -0 l 1xc8
192 -0 m 1xd0
 128 -0 l 1xd0
 128 511 l 1
 256 511 l 1
 256 409 l 1xe0
 192 409 l 1
 192 -0 l 1xd0
384 409 m 1xc4
 320 409 l 1xc8
 320 511 l 1
 384 511 l 1
 384 409 l 1xc4
EndSplineSet
EndChar

StartChar: C006e
Encoding: 110 110 110
Width: 512
Flags: HW
HStem: -0 21G<128 192 384 448> 409 102<192 384>
VStem: 128 64<-0.200027 409.4> 384 64<-0.200027 409.4>
LayerCount: 2
Fore
SplineSet
448 -0 m 1
 384 -0 l 1
 384 409 l 1
 448 409 l 1
 448 -0 l 1
192 -0 m 1
 128 -0 l 1
 128 511 l 1
 384 511 l 1
 384 409 l 1
 192 409 l 1
 192 -0 l 1
EndSplineSet
EndChar

StartChar: C006f
Encoding: 111 111 111
Width: 512
Flags: HW
HStem: -0 102<192 384> 409 102<192 384>
VStem: 128 64<102.2 409.4> 192 192<-0.200027 102.2 409.4 511.8> 384 64<102.2 409.4>
LayerCount: 2
Fore
SplineSet
384 102 m 1xd0
 384 -0 l 1
 192 -0 l 1xd0
 192 102 l 1xe0
 384 102 l 1xd0
384 102 m 1
 384 409 l 1xd0
 448 409 l 1
 448 102 l 1xc8
 384 102 l 1
192 102 m 1xe0
 128 102 l 1
 128 409 l 1
 192 409 l 1
 192 102 l 1xe0
384 409 m 1xd0
 192 409 l 1xe0
 192 511 l 1
 384 511 l 1
 384 409 l 1xd0
EndSplineSet
EndChar

StartChar: C0070
Encoding: 112 112 112
Width: 512
Flags: HW
HStem: -205 21G<128 192> -0 102<256 384> 102 102<192 256> 307 102<192 256> 409 102<256 384>
VStem: 128 128<102.2 204.6 307 409.4> 128 64<-205 102.2 204.6 307 409.4 511.8> 256 128<-0.200027 102.2 409.4 511.8> 384 64<102.2 409.4>
LayerCount: 2
Fore
SplineSet
192 -205 m 1xa3
 128 -205 l 1
 128 511 l 1
 192 511 l 1xab
 192 409 l 1
 256 409 l 1x93
 256 307 l 1x94
 192 307 l 1
 192 204 l 1xb2
 256 204 l 1xb4
 256 102 l 1
 384 102 l 1
 384 -0 l 1
 256 -0 l 1
 256 102 l 1xc1
 192 102 l 1
 192 -205 l 1xa3
384 102 m 1xc1
 384 409 l 1xc9
 448 409 l 1
 448 102 l 1xa880
 384 102 l 1xc1
384 409 m 1
 256 409 l 1x91
 256 511 l 1
 384 511 l 1
 384 409 l 1
EndSplineSet
EndChar

StartChar: C0071
Encoding: 113 113 113
Width: 512
Flags: HW
HStem: -205 21G<384 448> -0 102<192 320> 102 102<320 384> 307 102<320 384> 409 102<192 320>
VStem: 128 64<102.2 409.4> 192 128<-0.200027 102.2 409.4 511.8> 320 128<102.2 204.6 307 409.4> 384 64<-205 102.2 204.6 307 409.4 511.8>
LayerCount: 2
Fore
SplineSet
448 -205 m 1x8a80
 384 -205 l 1
 384 102 l 1xaa80
 320 102 l 1
 320 -0 l 1
 192 -0 l 1xc280
 192 102 l 1xc4
 320 102 l 1xc2
 320 204 l 1xa1
 384 204 l 1
 384 307 l 1xb080
 320 307 l 1xb1
 320 409 l 1
 384 409 l 1xb280
 384 511 l 1
 448 511 l 1
 448 -205 l 1x8a80
192 102 m 1xcc
 128 102 l 1xa4
 128 409 l 1
 192 409 l 1
 192 102 l 1xcc
320 409 m 1x92
 192 409 l 1x8c
 192 511 l 1
 320 511 l 1x8a
 320 409 l 1x92
EndSplineSet
EndChar

StartChar: C0072
Encoding: 114 114 114
Width: 512
Flags: HW
HStem: -0 21G<128 192> 307 102<192 256 384 448> 409 102<256 384>
VStem: 128 128<307 409.4> 128 64<-0.200027 307 409.4 511.8> 256 128<409.4 511.8> 384 64<307 409.4>
LayerCount: 2
Fore
SplineSet
192 -0 m 1xc8
 128 -0 l 1
 128 511 l 1
 192 511 l 1xa8
 192 409 l 1xc8
 256 409 l 1
 256 307 l 1xd0
 192 307 l 1
 192 -0 l 1xc8
384 409 m 1xc4
 448 409 l 1
 448 307 l 1
 384 307 l 1xc2
 384 409 l 1xc4
384 409 m 1xc4
 256 409 l 1xd0
 256 511 l 1
 384 511 l 1xa4
 384 409 l 1xc4
EndSplineSet
EndChar

StartChar: C0073
Encoding: 115 115 115
Width: 512
Flags: HW
HStem: -0 102<192 384> 102 102<384 448> 205 102<192 384> 307 102<128 192> 409 102<192 384>
VStem: 128 64<307 409.4> 192 192<-0.200027 102.2 204.6 307 409.4 511.8> 384 64<102.2 204.6>
LayerCount: 2
Fore
SplineSet
192 102 m 1x82
 384 102 l 1
 384 -0 l 1
 192 -0 l 1
 192 102 l 1x82
128 409 m 1x14
 192 409 l 1x14
 192 307 l 1x24
 384 307 l 1x22
 384 204 l 1x42
 448 204 l 1
 448 102 l 1x41
 384 102 l 1x82
 384 204 l 1x42
 192 204 l 1x22
 192 307 l 1x24
 128 307 l 1
 128 409 l 1x14
384 511 m 1x0a
 384 409 l 1x0a
 192 409 l 1x14
 192 511 l 1
 384 511 l 1x0a
EndSplineSet
EndChar

StartChar: uni25E5
Encoding: 9701 9701 116
Width: 512
Flags: HW
LayerCount: 2
Fore
SplineSet
0 819 m 1
 0 717 l 1
 64 717 l 1
 64 614 l 1
 128 614 l 1
 128 512 l 1
 192 512 l 1
 192 409 l 1
 256 409 l 1
 256 341 256 273 256 205 c 1
 320 205 l 1
 320 102 l 1
 384 102 l 1
 384 -0 l 1
 448 -0 l 1
 448 -205 l 1
 512 -205 l 1
 512 819 l 1
 0 819 l 1
EndSplineSet
EndChar

StartChar: uni2533
Encoding: 9523 9523 117
Width: 512
Flags: HW
LayerCount: 2
Fore
SplineSet
192 -205 m 1
 320 -205 l 1
 320 205 l 1
 512 205 l 1
 512 273 512 341 512 409 c 1
 0 409 l 1
 0 341 0 273 0 205 c 1
 192 205 l 1
 192 -205 l 1
EndSplineSet
EndChar

StartChar: uni252B
Encoding: 9515 9515 118
Width: 512
Flags: HW
VStem: 0 320
LayerCount: 2
Fore
SplineSet
192 -205 m 1
 320 -205 l 1
 320 819 l 1
 192 819 l 1
 192 409 l 1
 0 409 l 1
 0 341 0 273 0 205 c 1
 192 205 l 1
 192 -205 l 1
EndSplineSet
EndChar

StartChar: uni253B
Encoding: 9531 9531 119
Width: 512
Flags: HW
LayerCount: 2
Fore
SplineSet
0 205 m 1
 512 205 l 1
 512 273 512 341 512 409 c 1
 320 409 l 1
 320 819 l 1
 192 819 l 1
 192 409 l 1
 0 409 l 1
 0 341 0 273 0 205 c 1
EndSplineSet
EndChar

StartChar: uni2523
Encoding: 9507 9507 120
Width: 512
Flags: HW
VStem: 192 320
LayerCount: 2
Fore
SplineSet
192 -205 m 1
 320 -205 l 1
 320 205 l 1
 512 205 l 1
 512 273 512 341 512 409 c 1
 320 409 l 1
 320 819 l 1
 192 819 l 1
 192 -205 l 1
EndSplineSet
EndChar

StartChar: uni2573
Encoding: 9587 9587 121
Width: 512
Flags: HW
HStem: 512 21G<192 320>
LayerCount: 2
Fore
SplineSet
512 -205 m 1
 512 -0 l 1
 448 -0 l 1
 448 102 l 1
 384 102 l 1
 384 205 l 1
 320 205 l 1
 320 273 320 341 320 409 c 1
 384 409 l 1
 384 512 l 1
 448 512 l 1
 448 614 l 1
 512 614 l 1
 512 819 l 1
 448 819 l 1
 448 717 l 1
 384 717 l 1
 384 614 l 1
 320 614 l 1
 320 512 l 1
 192 512 l 1
 192 614 l 1
 128 614 l 1
 128 717 l 1
 64 717 l 1
 64 819 l 1
 0 819 l 1
 0 614 l 1
 64 614 l 1
 64 512 l 1
 128 512 l 1
 128 409 l 1
 192 409 l 1
 192 341 192 273 192 205 c 1
 128 205 l 1
 128 102 l 1
 64 102 l 1
 64 -0 l 1
 0 -0 l 1
 0 -205 l 1
 64 -205 l 1
 64 -103 l 1
 128 -103 l 1
 128 -0 l 1
 192 -0 l 1
 192 102 l 1
 320 102 l 1
 320 -0 l 1
 384 -0 l 1
 384 -103 l 1
 448 -103 l 1
 448 -205 l 1
 512 -205 l 1
EndSplineSet
EndChar

StartChar: uni2571
Encoding: 9585 9585 122
Width: 512
Flags: HW
LayerCount: 2
Fore
SplineSet
64 -103 m 1
 128 -103 l 1
 128 -0 l 1
 192 -0 l 1
 192 102 l 1
 256 102 l 1
 256 205 l 1
 320 205 l 1
 320 273 320 341 320 409 c 1
 384 409 l 1
 384 512 l 1
 448 512 l 1
 448 614 l 1
 512 614 l 1
 512 819 l 1
 448 819 l 1
 448 717 l 1
 384 717 l 1
 384 614 l 1
 320 614 l 1
 320 512 l 1
 256 512 l 1
 256 409 l 1
 192 409 l 1
 192 341 192 273 192 205 c 1
 128 205 l 1
 128 102 l 1
 64 102 l 1
 64 -0 l 1
 0 -0 l 1
 0 -205 l 1
 64 -205 l 1
 64 -103 l 1
EndSplineSet
EndChar

StartChar: uni2572
Encoding: 9586 9586 123
Width: 512
Flags: HW
LayerCount: 2
Fore
SplineSet
512 -205 m 1
 512 -0 l 1
 448 -0 l 1
 448 102 l 1
 384 102 l 1
 384 205 l 1
 320 205 l 1
 320 273 320 341 320 409 c 1
 256 409 l 1
 256 512 l 1
 192 512 l 1
 192 614 l 1
 128 614 l 1
 128 717 l 1
 64 717 l 1
 64 819 l 1
 0 819 l 1
 0 614 l 1
 64 614 l 1
 64 512 l 1
 128 512 l 1
 128 409 l 1
 192 409 l 1
 192 341 192 273 192 205 c 1
 256 205 l 1
 256 102 l 1
 320 102 l 1
 320 -0 l 1
 384 -0 l 1
 384 -103 l 1
 448 -103 l 1
 448 -205 l 1
 512 -205 l 1
EndSplineSet
EndChar

StartChar: u1FB82
Encoding: 129922 129922 124
Width: 512
Flags: HW
HStem: 614 205
LayerCount: 2
Fore
SplineSet
0 614 m 1
 512 614 l 1
 512 819 l 1
 0 819 l 1
 0 614 l 1
EndSplineSet
EndChar

StartChar: uni2582
Encoding: 9602 9602 125
Width: 512
Flags: HW
HStem: -205 205
LayerCount: 2
Fore
SplineSet
0 -205 m 1
 512 -205 l 1
 512 0 l 1
 0 0 l 1
 0 -205 l 1
EndSplineSet
EndChar

StartChar: uni258E
Encoding: 9614 9614 126
Width: 512
Flags: HW
VStem: 0 128
LayerCount: 2
Fore
SplineSet
0 -205 m 1
 128 -205 l 1
 128 819 l 1
 0 819 l 1
 0 -205 l 1
EndSplineSet
EndChar

StartChar: u1FB87
Encoding: 129927 129927 127
Width: 512
Flags: HW
VStem: 384 128
LayerCount: 2
Fore
SplineSet
384 -205 m 1
 512 -205 l 1
 512 819 l 1
 384 819 l 1
 384 -205 l 1
EndSplineSet
EndChar

StartChar: t
Encoding: 116 116 128
Width: 512
Flags: HW
LayerCount: 2
Fore
SplineSet
192 717 m 1
 192 614 l 1
 256 614 l 1
 256 717 l 1
 192 717 l 1
192 614 m 1
 192 512 l 1
 256 512 l 1
 256 614 l 1
 192 614 l 1
128 512 m 1
 128 409 l 1
 192 409 l 1
 192 512 l 1
 128 512 l 1
192 512 m 1
 192 409 l 1
 256 409 l 1
 256 512 l 1
 192 512 l 1
256 512 m 1
 256 409 l 1
 320 409 l 1
 320 512 l 1
 256 512 l 1
192 409 m 1
 192 307 l 1
 256 307 l 1
 256 409 l 1
 192 409 l 1
192 307 m 1
 192 205 l 1
 256 205 l 1
 256 307 l 1
 192 307 l 1
192 205 m 1
 192 102 l 1
 256 102 l 1
 256 205 l 1
 192 205 l 1
384 205 m 1
 384 102 l 1
 448 102 l 1
 448 205 l 1
 384 205 l 1
256 102 m 1
 256 -0 l 1
 320 -0 l 1
 320 102 l 1
 256 102 l 1
320 102 m 1
 320 -0 l 1
 384 -0 l 1
 384 102 l 1
 320 102 l 1
EndSplineSet
EndChar

StartChar: u
Encoding: 117 117 129
Width: 512
Flags: HW
LayerCount: 2
Fore
SplineSet
128 512 m 1
 128 409 l 1
 192 409 l 1
 192 512 l 1
 128 512 l 1
384 512 m 1
 384 409 l 1
 448 409 l 1
 448 512 l 1
 384 512 l 1
128 409 m 1
 128 307 l 1
 192 307 l 1
 192 409 l 1
 128 409 l 1
384 409 m 1
 384 307 l 1
 448 307 l 1
 448 409 l 1
 384 409 l 1
128 307 m 1
 128 205 l 1
 192 205 l 1
 192 307 l 1
 128 307 l 1
384 307 m 1
 384 205 l 1
 448 205 l 1
 448 307 l 1
 384 307 l 1
128 205 m 1
 128 102 l 1
 192 102 l 1
 192 205 l 1
 128 205 l 1
320 205 m 1
 320 102 l 1
 384 102 l 1
 384 205 l 1
 320 205 l 1
384 205 m 1
 384 102 l 1
 448 102 l 1
 448 205 l 1
 384 205 l 1
192 102 m 1
 192 -0 l 1
 256 -0 l 1
 256 102 l 1
 192 102 l 1
256 102 m 1
 256 -0 l 1
 320 -0 l 1
 320 102 l 1
 256 102 l 1
384 102 m 1
 384 -0 l 1
 448 -0 l 1
 448 102 l 1
 384 102 l 1
EndSplineSet
EndChar

StartChar: v
Encoding: 118 118 130
Width: 512
Flags: HW
LayerCount: 2
Fore
SplineSet
128 512 m 1
 128 409 l 1
 192 409 l 1
 192 512 l 1
 128 512 l 1
384 512 m 1
 384 409 l 1
 448 409 l 1
 448 512 l 1
 384 512 l 1
128 409 m 1
 128 307 l 1
 192 307 l 1
 192 409 l 1
 128 409 l 1
384 409 m 1
 384 307 l 1
 448 307 l 1
 448 409 l 1
 384 409 l 1
128 307 m 1
 128 205 l 1
 192 205 l 1
 192 307 l 1
 128 307 l 1
384 307 m 1
 384 205 l 1
 448 205 l 1
 448 307 l 1
 384 307 l 1
192 205 m 1
 192 102 l 1
 256 102 l 1
 256 205 l 1
 192 205 l 1
320 205 m 1
 320 102 l 1
 384 102 l 1
 384 205 l 1
 320 205 l 1
256 102 m 1
 256 -0 l 1
 320 -0 l 1
 320 102 l 1
 256 102 l 1
EndSplineSet
EndChar

StartChar: w
Encoding: 119 119 131
Width: 512
Flags: HW
LayerCount: 2
Fore
SplineSet
128 512 m 1
 128 409 l 1
 192 409 l 1
 192 512 l 1
 128 512 l 1
384 512 m 1
 384 409 l 1
 448 409 l 1
 448 512 l 1
 384 512 l 1
128 409 m 1
 128 307 l 1
 192 307 l 1
 192 409 l 1
 128 409 l 1
384 409 m 1
 384 307 l 1
 448 307 l 1
 448 409 l 1
 384 409 l 1
128 307 m 1
 128 205 l 1
 192 205 l 1
 192 307 l 1
 128 307 l 1
256 307 m 1
 256 205 l 1
 320 205 l 1
 320 307 l 1
 256 307 l 1
384 307 m 1
 384 205 l 1
 448 205 l 1
 448 307 l 1
 384 307 l 1
128 205 m 1
 128 102 l 1
 192 102 l 1
 192 205 l 1
 128 205 l 1
256 205 m 1
 256 102 l 1
 320 102 l 1
 320 205 l 1
 256 205 l 1
384 205 m 1
 384 102 l 1
 448 102 l 1
 448 205 l 1
 384 205 l 1
192 102 m 1
 192 -0 l 1
 256 -0 l 1
 256 102 l 1
 192 102 l 1
320 102 m 1
 320 -0 l 1
 384 -0 l 1
 384 102 l 1
 320 102 l 1
EndSplineSet
EndChar

StartChar: x
Encoding: 120 120 132
Width: 512
Flags: HW
LayerCount: 2
Fore
SplineSet
128 512 m 1
 128 409 l 1
 192 409 l 1
 192 512 l 1
 128 512 l 1
384 512 m 1
 384 409 l 1
 448 409 l 1
 448 512 l 1
 384 512 l 1
192 409 m 1
 192 307 l 1
 256 307 l 1
 256 409 l 1
 192 409 l 1
320 409 m 1
 320 307 l 1
 384 307 l 1
 384 409 l 1
 320 409 l 1
256 307 m 1
 256 205 l 1
 320 205 l 1
 320 307 l 1
 256 307 l 1
192 205 m 1
 192 102 l 1
 256 102 l 1
 256 205 l 1
 192 205 l 1
320 205 m 1
 320 102 l 1
 384 102 l 1
 384 205 l 1
 320 205 l 1
128 102 m 1
 128 -0 l 1
 192 -0 l 1
 192 102 l 1
 128 102 l 1
384 102 m 1
 384 -0 l 1
 448 -0 l 1
 448 102 l 1
 384 102 l 1
EndSplineSet
EndChar

StartChar: y
Encoding: 121 121 133
Width: 512
Flags: HW
LayerCount: 2
Fore
SplineSet
128 512 m 1
 128 409 l 1
 192 409 l 1
 192 512 l 1
 128 512 l 1
384 512 m 1
 384 409 l 1
 448 409 l 1
 448 512 l 1
 384 512 l 1
128 409 m 1
 128 307 l 1
 192 307 l 1
 192 409 l 1
 128 409 l 1
384 409 m 1
 384 307 l 1
 448 307 l 1
 448 409 l 1
 384 409 l 1
128 307 m 1
 128 205 l 1
 192 205 l 1
 192 307 l 1
 128 307 l 1
384 307 m 1
 384 205 l 1
 448 205 l 1
 448 307 l 1
 384 307 l 1
128 205 m 1
 128 102 l 1
 192 102 l 1
 192 205 l 1
 128 205 l 1
320 205 m 1
 320 102 l 1
 384 102 l 1
 384 205 l 1
 320 205 l 1
384 205 m 1
 384 102 l 1
 448 102 l 1
 448 205 l 1
 384 205 l 1
192 102 m 1
 192 -0 l 1
 256 -0 l 1
 256 102 l 1
 192 102 l 1
256 102 m 1
 256 -0 l 1
 320 -0 l 1
 320 102 l 1
 256 102 l 1
384 102 m 1
 384 -0 l 1
 448 -0 l 1
 448 102 l 1
 384 102 l 1
384 -0 m 1
 384 -103 l 1
 448 -103 l 1
 448 -0 l 1
 384 -0 l 1
192 -103 m 1
 192 -205 l 1
 256 -205 l 1
 256 -103 l 1
 192 -103 l 1
256 -103 m 1
 256 -205 l 1
 320 -205 l 1
 320 -103 l 1
 256 -103 l 1
320 -103 m 1
 320 -205 l 1
 384 -205 l 1
 384 -103 l 1
 320 -103 l 1
EndSplineSet
EndChar

StartChar: z
Encoding: 122 122 134
Width: 512
Flags: HW
LayerCount: 2
Fore
SplineSet
128 512 m 1
 128 409 l 1
 192 409 l 1
 192 512 l 1
 128 512 l 1
192 512 m 1
 192 409 l 1
 256 409 l 1
 256 512 l 1
 192 512 l 1
256 512 m 1
 256 409 l 1
 320 409 l 1
 320 512 l 1
 256 512 l 1
320 512 m 1
 320 409 l 1
 384 409 l 1
 384 512 l 1
 320 512 l 1
384 512 m 1
 384 409 l 1
 448 409 l 1
 448 512 l 1
 384 512 l 1
320 409 m 1
 320 307 l 1
 384 307 l 1
 384 409 l 1
 320 409 l 1
256 307 m 1
 256 205 l 1
 320 205 l 1
 320 307 l 1
 256 307 l 1
192 205 m 1
 192 102 l 1
 256 102 l 1
 256 205 l 1
 192 205 l 1
128 102 m 1
 128 -0 l 1
 192 -0 l 1
 192 102 l 1
 128 102 l 1
192 102 m 1
 192 -0 l 1
 256 -0 l 1
 256 102 l 1
 192 102 l 1
256 102 m 1
 256 -0 l 1
 320 -0 l 1
 320 102 l 1
 256 102 l 1
320 102 m 1
 320 -0 l 1
 384 -0 l 1
 384 102 l 1
 320 102 l 1
384 102 m 1
 384 -0 l 1
 448 -0 l 1
 448 102 l 1
 384 102 l 1
EndSplineSet
EndChar

StartChar: braceleft
Encoding: 123 123 135
Width: 512
Flags: HW
LayerCount: 2
Fore
SplineSet
256 717 m 1
 256 614 l 1
 320 614 l 1
 320 717 l 1
 256 717 l 1
320 717 m 1
 320 614 l 1
 384 614 l 1
 384 717 l 1
 320 717 l 1
192 614 m 1
 192 512 l 1
 256 512 l 1
 256 614 l 1
 192 614 l 1
192 512 m 1
 192 409 l 1
 256 409 l 1
 256 512 l 1
 192 512 l 1
128 409 m 1
 128 307 l 1
 192 307 l 1
 192 409 l 1
 128 409 l 1
192 307 m 1
 192 205 l 1
 256 205 l 1
 256 307 l 1
 192 307 l 1
192 205 m 1
 192 102 l 1
 256 102 l 1
 256 205 l 1
 192 205 l 1
256 102 m 1
 256 -0 l 1
 320 -0 l 1
 320 102 l 1
 256 102 l 1
320 102 m 1
 320 -0 l 1
 384 -0 l 1
 384 102 l 1
 320 102 l 1
EndSplineSet
EndChar

StartChar: bar
Encoding: 124 124 136
Width: 512
Flags: HW
VStem: 256 64
LayerCount: 2
Fore
SplineSet
256 717 m 1
 256 614 l 1
 320 614 l 1
 320 717 l 1
 256 717 l 1
256 614 m 1
 256 512 l 1
 320 512 l 1
 320 614 l 1
 256 614 l 1
256 512 m 1
 256 409 l 1
 320 409 l 1
 320 512 l 1
 256 512 l 1
256 307 m 1
 256 205 l 1
 320 205 l 1
 320 307 l 1
 256 307 l 1
256 205 m 1
 256 102 l 1
 320 102 l 1
 320 205 l 1
 256 205 l 1
256 102 m 1
 256 -0 l 1
 320 -0 l 1
 320 102 l 1
 256 102 l 1
EndSplineSet
EndChar

StartChar: braceright
Encoding: 125 125 137
Width: 512
Flags: HW
LayerCount: 2
Fore
SplineSet
192 717 m 1
 192 614 l 1
 256 614 l 1
 256 717 l 1
 192 717 l 1
256 717 m 1
 256 614 l 1
 320 614 l 1
 320 717 l 1
 256 717 l 1
320 614 m 1
 320 512 l 1
 384 512 l 1
 384 614 l 1
 320 614 l 1
320 512 m 1
 320 409 l 1
 384 409 l 1
 384 512 l 1
 320 512 l 1
384 409 m 1
 384 307 l 1
 448 307 l 1
 448 409 l 1
 384 409 l 1
320 307 m 1
 320 205 l 1
 384 205 l 1
 384 307 l 1
 320 307 l 1
320 205 m 1
 320 102 l 1
 384 102 l 1
 384 205 l 1
 320 205 l 1
192 102 m 1
 192 -0 l 1
 256 -0 l 1
 256 102 l 1
 192 102 l 1
256 102 m 1
 256 -0 l 1
 320 -0 l 1
 320 102 l 1
 256 102 l 1
EndSplineSet
EndChar

StartChar: asciitilde
Encoding: 126 126 138
Width: 512
Flags: HW
LayerCount: 2
Fore
SplineSet
192 717 m 1
 192 614 l 1
 256 614 l 1
 256 717 l 1
 192 717 l 1
128 614 m 1
 128 512 l 1
 192 512 l 1
 192 614 l 1
 128 614 l 1
256 614 m 1
 256 512 l 1
 320 512 l 1
 320 614 l 1
 256 614 l 1
384 614 m 1
 384 512 l 1
 448 512 l 1
 448 614 l 1
 384 614 l 1
320 512 m 1
 320 409 l 1
 384 409 l 1
 384 512 l 1
 320 512 l 1
EndSplineSet
EndChar

StartChar: bullet
Encoding: 8226 8226 139
Width: 512
Flags: HW
LayerCount: 2
Fore
SplineSet
192 614 m 1
 192 512 l 1
 256 512 l 1
 256 614 l 1
 192 614 l 1
256 614 m 1
 256 512 l 1
 320 512 l 1
 320 614 l 1
 256 614 l 1
320 614 m 1
 320 512 l 1
 384 512 l 1
 384 614 l 1
 320 614 l 1
128 512 m 1
 128 409 l 1
 192 409 l 1
 192 512 l 1
 128 512 l 1
192 512 m 1
 192 409 l 1
 256 409 l 1
 256 512 l 1
 192 512 l 1
256 512 m 1
 256 409 l 1
 320 409 l 1
 320 512 l 1
 256 512 l 1
320 512 m 1
 320 409 l 1
 384 409 l 1
 384 512 l 1
 320 512 l 1
384 512 m 1
 384 409 l 1
 448 409 l 1
 448 512 l 1
 384 512 l 1
128 409 m 1
 128 307 l 1
 192 307 l 1
 192 409 l 1
 128 409 l 1
192 409 m 1
 192 307 l 1
 256 307 l 1
 256 409 l 1
 192 409 l 1
256 409 m 1
 256 307 l 1
 320 307 l 1
 320 409 l 1
 256 409 l 1
320 409 m 1
 320 307 l 1
 384 307 l 1
 384 409 l 1
 320 409 l 1
384 409 m 1
 384 307 l 1
 448 307 l 1
 448 409 l 1
 384 409 l 1
128 307 m 1
 128 205 l 1
 192 205 l 1
 192 307 l 1
 128 307 l 1
192 307 m 1
 192 205 l 1
 256 205 l 1
 256 307 l 1
 192 307 l 1
256 307 m 1
 256 205 l 1
 320 205 l 1
 320 307 l 1
 256 307 l 1
320 307 m 1
 320 205 l 1
 384 205 l 1
 384 307 l 1
 320 307 l 1
384 307 m 1
 384 205 l 1
 448 205 l 1
 448 307 l 1
 384 307 l 1
192 205 m 1
 192 102 l 1
 256 102 l 1
 256 205 l 1
 192 205 l 1
256 205 m 1
 256 102 l 1
 320 102 l 1
 320 205 l 1
 256 205 l 1
320 205 m 1
 320 102 l 1
 384 102 l 1
 384 205 l 1
 320 205 l 1
EndSplineSet
EndChar

StartChar: plusminus
Encoding: 177 177 140
Width: 512
Flags: HW
LayerCount: 2
Fore
SplineSet
256 717 m 1
 256 614 l 1
 320 614 l 1
 320 717 l 1
 256 717 l 1
256 614 m 1
 256 512 l 1
 320 512 l 1
 320 614 l 1
 256 614 l 1
128 512 m 1
 128 409 l 1
 192 409 l 1
 192 512 l 1
 128 512 l 1
192 512 m 1
 192 409 l 1
 256 409 l 1
 256 512 l 1
 192 512 l 1
256 512 m 1
 256 409 l 1
 320 409 l 1
 320 512 l 1
 256 512 l 1
320 512 m 1
 320 409 l 1
 384 409 l 1
 384 512 l 1
 320 512 l 1
384 512 m 1
 384 409 l 1
 448 409 l 1
 448 512 l 1
 384 512 l 1
256 409 m 1
 256 307 l 1
 320 307 l 1
 320 409 l 1
 256 409 l 1
256 307 m 1
 256 205 l 1
 320 205 l 1
 320 307 l 1
 256 307 l 1
128 102 m 1
 128 -0 l 1
 192 -0 l 1
 192 102 l 1
 128 102 l 1
192 102 m 1
 192 -0 l 1
 256 -0 l 1
 256 102 l 1
 192 102 l 1
256 102 m 1
 256 -0 l 1
 320 -0 l 1
 320 102 l 1
 256 102 l 1
320 102 m 1
 320 -0 l 1
 384 -0 l 1
 384 102 l 1
 320 102 l 1
384 102 m 1
 384 -0 l 1
 448 -0 l 1
 448 102 l 1
 384 102 l 1
EndSplineSet
EndChar

StartChar: paragraph
Encoding: 182 182 141
Width: 512
Flags: HW
LayerCount: 2
Fore
SplineSet
192 717 m 1
 192 614 l 1
 256 614 l 1
 256 717 l 1
 192 717 l 1
256 717 m 1
 256 614 l 1
 320 614 l 1
 320 717 l 1
 256 717 l 1
320 717 m 1
 320 614 l 1
 384 614 l 1
 384 717 l 1
 320 717 l 1
384 717 m 1
 384 614 l 1
 448 614 l 1
 448 717 l 1
 384 717 l 1
128 614 m 1
 128 512 l 1
 192 512 l 1
 192 614 l 1
 128 614 l 1
192 614 m 1
 192 512 l 1
 256 512 l 1
 256 614 l 1
 192 614 l 1
256 614 m 1
 256 512 l 1
 320 512 l 1
 320 614 l 1
 256 614 l 1
320 614 m 1
 320 512 l 1
 384 512 l 1
 384 614 l 1
 320 614 l 1
128 512 m 1
 128 409 l 1
 192 409 l 1
 192 512 l 1
 128 512 l 1
192 512 m 1
 192 409 l 1
 256 409 l 1
 256 512 l 1
 192 512 l 1
256 512 m 1
 256 409 l 1
 320 409 l 1
 320 512 l 1
 256 512 l 1
320 512 m 1
 320 409 l 1
 384 409 l 1
 384 512 l 1
 320 512 l 1
192 409 m 1
 192 307 l 1
 256 307 l 1
 256 409 l 1
 192 409 l 1
256 409 m 1
 256 307 l 1
 320 307 l 1
 320 409 l 1
 256 409 l 1
320 409 m 1
 320 307 l 1
 384 307 l 1
 384 409 l 1
 320 409 l 1
256 307 m 1
 256 205 l 1
 320 205 l 1
 320 307 l 1
 256 307 l 1
320 307 m 1
 320 205 l 1
 384 205 l 1
 384 307 l 1
 320 307 l 1
256 205 m 1
 256 102 l 1
 320 102 l 1
 320 205 l 1
 256 205 l 1
320 205 m 1
 320 102 l 1
 384 102 l 1
 384 205 l 1
 320 205 l 1
256 102 m 1
 256 -0 l 1
 320 -0 l 1
 320 102 l 1
 256 102 l 1
320 102 m 1
 320 -0 l 1
 384 -0 l 1
 384 102 l 1
 320 102 l 1
EndSplineSet
EndChar

StartChar: divide
Encoding: 247 247 142
Width: 512
Flags: HW
LayerCount: 2
Fore
SplineSet
256 614 m 1
 256 512 l 1
 320 512 l 1
 320 614 l 1
 256 614 l 1
128 409 m 1
 128 307 l 1
 192 307 l 1
 192 409 l 1
 128 409 l 1
192 409 m 1
 192 307 l 1
 256 307 l 1
 256 409 l 1
 192 409 l 1
256 409 m 1
 256 307 l 1
 320 307 l 1
 320 409 l 1
 256 409 l 1
320 409 m 1
 320 307 l 1
 384 307 l 1
 384 409 l 1
 320 409 l 1
384 409 m 1
 384 307 l 1
 448 307 l 1
 448 409 l 1
 384 409 l 1
256 205 m 1
 256 102 l 1
 320 102 l 1
 320 205 l 1
 256 205 l 1
EndSplineSet
EndChar

StartChar: uni2503
Encoding: 9475 9475 143
Width: 512
Flags: HW
LayerCount: 2
Fore
SplineSet
192 819 m 1
 192 717 l 1
 256 717 l 1
 256 819 l 1
 192 819 l 1
256 819 m 1
 256 717 l 1
 320 717 l 1
 320 819 l 1
 256 819 l 1
192 717 m 1
 192 614 l 1
 256 614 l 1
 256 717 l 1
 192 717 l 1
256 717 m 1
 256 614 l 1
 320 614 l 1
 320 717 l 1
 256 717 l 1
192 614 m 1
 192 512 l 1
 256 512 l 1
 256 614 l 1
 192 614 l 1
256 614 m 1
 256 512 l 1
 320 512 l 1
 320 614 l 1
 256 614 l 1
192 512 m 1
 192 409 l 1
 256 409 l 1
 256 512 l 1
 192 512 l 1
256 512 m 1
 256 409 l 1
 320 409 l 1
 320 512 l 1
 256 512 l 1
192 409 m 1
 192 307 l 1
 256 307 l 1
 256 409 l 1
 192 409 l 1
256 409 m 1
 256 307 l 1
 320 307 l 1
 320 409 l 1
 256 409 l 1
192 307 m 1
 192 205 l 1
 256 205 l 1
 256 307 l 1
 192 307 l 1
256 307 m 1
 256 205 l 1
 320 205 l 1
 320 307 l 1
 256 307 l 1
192 205 m 1
 192 102 l 1
 256 102 l 1
 256 205 l 1
 192 205 l 1
256 205 m 1
 256 102 l 1
 320 102 l 1
 320 205 l 1
 256 205 l 1
192 102 m 1
 192 -0 l 1
 256 -0 l 1
 256 102 l 1
 192 102 l 1
256 102 m 1
 256 -0 l 1
 320 -0 l 1
 320 102 l 1
 256 102 l 1
192 -0 m 1
 192 -103 l 1
 256 -103 l 1
 256 -0 l 1
 192 -0 l 1
256 -0 m 1
 256 -103 l 1
 320 -103 l 1
 320 -0 l 1
 256 -0 l 1
192 -103 m 1
 192 -205 l 1
 256 -205 l 1
 256 -103 l 1
 192 -103 l 1
256 -103 m 1
 256 -205 l 1
 320 -205 l 1
 320 -103 l 1
 256 -103 l 1
EndSplineSet
EndChar

StartChar: uni2501
Encoding: 9473 9473 144
Width: 512
Flags: W
HStem: 205 205
LayerCount: 2
Fore
SplineSet
0 410 m 1
 0 307 l 1
 64 307 l 1
 64 410 l 1
 0 410 l 1
64 410 m 1
 64 307 l 1
 128 307 l 1
 128 410 l 1
 64 410 l 1
128 410 m 1
 128 307 l 1
 192 307 l 1
 192 410 l 1
 128 410 l 1
192 410 m 1
 192 307 l 1
 256 307 l 1
 256 410 l 1
 192 410 l 1
256 410 m 1
 256 307 l 1
 320 307 l 1
 320 410 l 1
 256 410 l 1
320 410 m 1
 320 307 l 1
 384 307 l 1
 384 410 l 1
 320 410 l 1
384 410 m 1
 384 307 l 1
 448 307 l 1
 448 410 l 1
 384 410 l 1
448 410 m 1
 448 307 l 1
 512 307 l 1
 512 410 l 1
 448 410 l 1
0 307 m 1
 0 205 l 1
 64 205 l 1
 64 307 l 1
 0 307 l 1
64 307 m 1
 64 205 l 1
 128 205 l 1
 128 307 l 1
 64 307 l 1
128 307 m 1
 128 205 l 1
 192 205 l 1
 192 307 l 1
 128 307 l 1
192 307 m 1
 192 205 l 1
 256 205 l 1
 256 307 l 1
 192 307 l 1
256 307 m 1
 256 205 l 1
 320 205 l 1
 320 307 l 1
 256 307 l 1
320 307 m 1
 320 205 l 1
 384 205 l 1
 384 307 l 1
 320 307 l 1
384 307 m 1
 384 205 l 1
 448 205 l 1
 448 307 l 1
 384 307 l 1
448 307 m 1
 448 205 l 1
 512 205 l 1
 512 307 l 1
 448 307 l 1
EndSplineSet
EndChar

StartChar: uni254B
Encoding: 9547 9547 145
Width: 512
Flags: HW
LayerCount: 2
Fore
SplineSet
192 819 m 1
 192 717 l 1
 256 717 l 1
 256 819 l 1
 192 819 l 1
256 819 m 1
 256 717 l 1
 320 717 l 1
 320 819 l 1
 256 819 l 1
192 717 m 1
 192 614 l 1
 256 614 l 1
 256 717 l 1
 192 717 l 1
256 717 m 1
 256 614 l 1
 320 614 l 1
 320 717 l 1
 256 717 l 1
192 614 m 1
 192 512 l 1
 256 512 l 1
 256 614 l 1
 192 614 l 1
256 614 m 1
 256 512 l 1
 320 512 l 1
 320 614 l 1
 256 614 l 1
192 512 m 1
 192 409 l 1
 256 409 l 1
 256 512 l 1
 192 512 l 1
256 512 m 1
 256 409 l 1
 320 409 l 1
 320 512 l 1
 256 512 l 1
0 409 m 1
 0 307 l 1
 64 307 l 1
 64 409 l 1
 0 409 l 1
64 409 m 1
 64 307 l 1
 128 307 l 1
 128 409 l 1
 64 409 l 1
128 409 m 1
 128 307 l 1
 192 307 l 1
 192 409 l 1
 128 409 l 1
192 409 m 1
 192 307 l 1
 256 307 l 1
 256 409 l 1
 192 409 l 1
256 409 m 1
 256 307 l 1
 320 307 l 1
 320 409 l 1
 256 409 l 1
320 409 m 1
 320 307 l 1
 384 307 l 1
 384 409 l 1
 320 409 l 1
384 409 m 1
 384 307 l 1
 448 307 l 1
 448 409 l 1
 384 409 l 1
448 409 m 1
 448 307 l 1
 512 307 l 1
 512 409 l 1
 448 409 l 1
0 307 m 1
 0 205 l 1
 64 205 l 1
 64 307 l 1
 0 307 l 1
64 307 m 1
 64 205 l 1
 128 205 l 1
 128 307 l 1
 64 307 l 1
128 307 m 1
 128 205 l 1
 192 205 l 1
 192 307 l 1
 128 307 l 1
192 307 m 1
 192 205 l 1
 256 205 l 1
 256 307 l 1
 192 307 l 1
256 307 m 1
 256 205 l 1
 320 205 l 1
 320 307 l 1
 256 307 l 1
320 307 m 1
 320 205 l 1
 384 205 l 1
 384 307 l 1
 320 307 l 1
384 307 m 1
 384 205 l 1
 448 205 l 1
 448 307 l 1
 384 307 l 1
448 307 m 1
 448 205 l 1
 512 205 l 1
 512 307 l 1
 448 307 l 1
192 205 m 1
 192 102 l 1
 256 102 l 1
 256 205 l 1
 192 205 l 1
256 205 m 1
 256 102 l 1
 320 102 l 1
 320 205 l 1
 256 205 l 1
192 102 m 1
 192 -0 l 1
 256 -0 l 1
 256 102 l 1
 192 102 l 1
256 102 m 1
 256 -0 l 1
 320 -0 l 1
 320 102 l 1
 256 102 l 1
192 -0 m 1
 192 -103 l 1
 256 -103 l 1
 256 -0 l 1
 192 -0 l 1
256 -0 m 1
 256 -103 l 1
 320 -103 l 1
 320 -0 l 1
 256 -0 l 1
192 -103 m 1
 192 -205 l 1
 256 -205 l 1
 256 -103 l 1
 192 -103 l 1
256 -103 m 1
 256 -205 l 1
 320 -205 l 1
 320 -103 l 1
 256 -103 l 1
EndSplineSet
EndChar

StartChar: uni2513
Encoding: 9491 9491 146
Width: 512
Flags: HW
LayerCount: 2
Fore
SplineSet
0 409 m 1
 0 307 l 1
 64 307 l 1
 64 409 l 1
 0 409 l 1
64 409 m 1
 64 307 l 1
 128 307 l 1
 128 409 l 1
 64 409 l 1
128 409 m 1
 128 307 l 1
 192 307 l 1
 192 409 l 1
 128 409 l 1
192 409 m 1
 192 307 l 1
 256 307 l 1
 256 409 l 1
 192 409 l 1
256 409 m 1
 256 307 l 1
 320 307 l 1
 320 409 l 1
 256 409 l 1
0 307 m 1
 0 205 l 1
 64 205 l 1
 64 307 l 1
 0 307 l 1
64 307 m 1
 64 205 l 1
 128 205 l 1
 128 307 l 1
 64 307 l 1
128 307 m 1
 128 205 l 1
 192 205 l 1
 192 307 l 1
 128 307 l 1
192 307 m 1
 192 205 l 1
 256 205 l 1
 256 307 l 1
 192 307 l 1
256 307 m 1
 256 205 l 1
 320 205 l 1
 320 307 l 1
 256 307 l 1
192 205 m 1
 192 102 l 1
 256 102 l 1
 256 205 l 1
 192 205 l 1
256 205 m 1
 256 102 l 1
 320 102 l 1
 320 205 l 1
 256 205 l 1
192 102 m 1
 192 -0 l 1
 256 -0 l 1
 256 102 l 1
 192 102 l 1
256 102 m 1
 256 -0 l 1
 320 -0 l 1
 320 102 l 1
 256 102 l 1
192 -0 m 1
 192 -103 l 1
 256 -103 l 1
 256 -0 l 1
 192 -0 l 1
256 -0 m 1
 256 -103 l 1
 320 -103 l 1
 320 -0 l 1
 256 -0 l 1
192 -103 m 1
 192 -205 l 1
 256 -205 l 1
 256 -103 l 1
 192 -103 l 1
256 -103 m 1
 256 -205 l 1
 320 -205 l 1
 320 -103 l 1
 256 -103 l 1
EndSplineSet
EndChar

StartChar: uni25E4
Encoding: 9700 9700 147
Width: 512
Flags: HW
LayerCount: 2
Fore
SplineSet
0 819 m 1
 0 717 l 1
 64 717 l 1
 64 819 l 1
 0 819 l 1
64 819 m 1
 64 717 l 1
 128 717 l 1
 128 819 l 1
 64 819 l 1
128 819 m 1
 128 717 l 1
 192 717 l 1
 192 819 l 1
 128 819 l 1
192 819 m 1
 192 717 l 1
 256 717 l 1
 256 819 l 1
 192 819 l 1
256 819 m 1
 256 717 l 1
 320 717 l 1
 320 819 l 1
 256 819 l 1
320 819 m 1
 320 717 l 1
 384 717 l 1
 384 819 l 1
 320 819 l 1
384 819 m 1
 384 717 l 1
 448 717 l 1
 448 819 l 1
 384 819 l 1
448 819 m 1
 448 717 l 1
 512 717 l 1
 512 819 l 1
 448 819 l 1
0 717 m 1
 0 614 l 1
 64 614 l 1
 64 717 l 1
 0 717 l 1
64 717 m 1
 64 614 l 1
 128 614 l 1
 128 717 l 1
 64 717 l 1
128 717 m 1
 128 614 l 1
 192 614 l 1
 192 717 l 1
 128 717 l 1
192 717 m 1
 192 614 l 1
 256 614 l 1
 256 717 l 1
 192 717 l 1
256 717 m 1
 256 614 l 1
 320 614 l 1
 320 717 l 1
 256 717 l 1
320 717 m 1
 320 614 l 1
 384 614 l 1
 384 717 l 1
 320 717 l 1
384 717 m 1
 384 614 l 1
 448 614 l 1
 448 717 l 1
 384 717 l 1
0 614 m 1
 0 512 l 1
 64 512 l 1
 64 614 l 1
 0 614 l 1
64 614 m 1
 64 512 l 1
 128 512 l 1
 128 614 l 1
 64 614 l 1
128 614 m 1
 128 512 l 1
 192 512 l 1
 192 614 l 1
 128 614 l 1
192 614 m 1
 192 512 l 1
 256 512 l 1
 256 614 l 1
 192 614 l 1
256 614 m 1
 256 512 l 1
 320 512 l 1
 320 614 l 1
 256 614 l 1
320 614 m 1
 320 512 l 1
 384 512 l 1
 384 614 l 1
 320 614 l 1
0 512 m 1
 0 409 l 1
 64 409 l 1
 64 512 l 1
 0 512 l 1
64 512 m 1
 64 409 l 1
 128 409 l 1
 128 512 l 1
 64 512 l 1
128 512 m 1
 128 409 l 1
 192 409 l 1
 192 512 l 1
 128 512 l 1
192 512 m 1
 192 409 l 1
 256 409 l 1
 256 512 l 1
 192 512 l 1
256 512 m 1
 256 409 l 1
 320 409 l 1
 320 512 l 1
 256 512 l 1
0 409 m 1
 0 307 l 1
 64 307 l 1
 64 409 l 1
 0 409 l 1
64 409 m 1
 64 307 l 1
 128 307 l 1
 128 409 l 1
 64 409 l 1
128 409 m 1
 128 307 l 1
 192 307 l 1
 192 409 l 1
 128 409 l 1
192 409 m 1
 192 307 l 1
 256 307 l 1
 256 409 l 1
 192 409 l 1
0 307 m 1
 0 205 l 1
 64 205 l 1
 64 307 l 1
 0 307 l 1
64 307 m 1
 64 205 l 1
 128 205 l 1
 128 307 l 1
 64 307 l 1
128 307 m 1
 128 205 l 1
 192 205 l 1
 192 307 l 1
 128 307 l 1
192 307 m 1
 192 205 l 1
 256 205 l 1
 256 307 l 1
 192 307 l 1
0 205 m 1
 0 102 l 1
 64 102 l 1
 64 205 l 1
 0 205 l 1
64 205 m 1
 64 102 l 1
 128 102 l 1
 128 205 l 1
 64 205 l 1
128 205 m 1
 128 102 l 1
 192 102 l 1
 192 205 l 1
 128 205 l 1
0 102 m 1
 0 -0 l 1
 64 -0 l 1
 64 102 l 1
 0 102 l 1
64 102 m 1
 64 -0 l 1
 128 -0 l 1
 128 102 l 1
 64 102 l 1
0 -0 m 1
 0 -103 l 1
 64 -103 l 1
 64 -0 l 1
 0 -0 l 1
0 -103 m 1
 0 -205 l 1
 64 -205 l 1
 64 -103 l 1
 0 -103 l 1
EndSplineSet
EndChar

StartChar: uni251B
Encoding: 9499 9499 148
Width: 512
Flags: HW
LayerCount: 2
Fore
SplineSet
192 819 m 1
 192 717 l 1
 256 717 l 1
 256 819 l 1
 192 819 l 1
256 819 m 1
 256 717 l 1
 320 717 l 1
 320 819 l 1
 256 819 l 1
192 717 m 1
 192 614 l 1
 256 614 l 1
 256 717 l 1
 192 717 l 1
256 717 m 1
 256 614 l 1
 320 614 l 1
 320 717 l 1
 256 717 l 1
192 614 m 1
 192 512 l 1
 256 512 l 1
 256 614 l 1
 192 614 l 1
256 614 m 1
 256 512 l 1
 320 512 l 1
 320 614 l 1
 256 614 l 1
192 512 m 1
 192 409 l 1
 256 409 l 1
 256 512 l 1
 192 512 l 1
256 512 m 1
 256 409 l 1
 320 409 l 1
 320 512 l 1
 256 512 l 1
0 409 m 1
 0 307 l 1
 64 307 l 1
 64 409 l 1
 0 409 l 1
64 409 m 1
 64 307 l 1
 128 307 l 1
 128 409 l 1
 64 409 l 1
128 409 m 1
 128 307 l 1
 192 307 l 1
 192 409 l 1
 128 409 l 1
192 409 m 1
 192 307 l 1
 256 307 l 1
 256 409 l 1
 192 409 l 1
256 409 m 1
 256 307 l 1
 320 307 l 1
 320 409 l 1
 256 409 l 1
0 307 m 1
 0 205 l 1
 64 205 l 1
 64 307 l 1
 0 307 l 1
64 307 m 1
 64 205 l 1
 128 205 l 1
 128 307 l 1
 64 307 l 1
128 307 m 1
 128 205 l 1
 192 205 l 1
 192 307 l 1
 128 307 l 1
192 307 m 1
 192 205 l 1
 256 205 l 1
 256 307 l 1
 192 307 l 1
256 307 m 1
 256 205 l 1
 320 205 l 1
 320 307 l 1
 256 307 l 1
EndSplineSet
EndChar

StartChar: uni2517
Encoding: 9495 9495 149
Width: 512
Flags: HW
LayerCount: 2
Fore
SplineSet
192 819 m 1
 192 717 l 1
 256 717 l 1
 256 819 l 1
 192 819 l 1
256 819 m 1
 256 717 l 1
 320 717 l 1
 320 819 l 1
 256 819 l 1
192 717 m 1
 192 614 l 1
 256 614 l 1
 256 717 l 1
 192 717 l 1
256 717 m 1
 256 614 l 1
 320 614 l 1
 320 717 l 1
 256 717 l 1
192 614 m 1
 192 512 l 1
 256 512 l 1
 256 614 l 1
 192 614 l 1
256 614 m 1
 256 512 l 1
 320 512 l 1
 320 614 l 1
 256 614 l 1
192 512 m 1
 192 409 l 1
 256 409 l 1
 256 512 l 1
 192 512 l 1
256 512 m 1
 256 409 l 1
 320 409 l 1
 320 512 l 1
 256 512 l 1
192 409 m 1
 192 307 l 1
 256 307 l 1
 256 409 l 1
 192 409 l 1
256 409 m 1
 256 307 l 1
 320 307 l 1
 320 409 l 1
 256 409 l 1
320 409 m 1
 320 307 l 1
 384 307 l 1
 384 409 l 1
 320 409 l 1
384 409 m 1
 384 307 l 1
 448 307 l 1
 448 409 l 1
 384 409 l 1
448 409 m 1
 448 307 l 1
 512 307 l 1
 512 409 l 1
 448 409 l 1
192 307 m 1
 192 205 l 1
 256 205 l 1
 256 307 l 1
 192 307 l 1
256 307 m 1
 256 205 l 1
 320 205 l 1
 320 307 l 1
 256 307 l 1
320 307 m 1
 320 205 l 1
 384 205 l 1
 384 307 l 1
 320 307 l 1
384 307 m 1
 384 205 l 1
 448 205 l 1
 448 307 l 1
 384 307 l 1
448 307 m 1
 448 205 l 1
 512 205 l 1
 512 307 l 1
 448 307 l 1
EndSplineSet
EndChar

StartChar: uni250F
Encoding: 9487 9487 150
Width: 512
Flags: HW
LayerCount: 2
Fore
SplineSet
192 409 m 1
 192 307 l 1
 256 307 l 1
 256 409 l 1
 192 409 l 1
256 409 m 1
 256 307 l 1
 320 307 l 1
 320 409 l 1
 256 409 l 1
320 409 m 1
 320 307 l 1
 384 307 l 1
 384 409 l 1
 320 409 l 1
384 409 m 1
 384 307 l 1
 448 307 l 1
 448 409 l 1
 384 409 l 1
448 409 m 1
 448 307 l 1
 512 307 l 1
 512 409 l 1
 448 409 l 1
192 307 m 1
 192 205 l 1
 256 205 l 1
 256 307 l 1
 192 307 l 1
256 307 m 1
 256 205 l 1
 320 205 l 1
 320 307 l 1
 256 307 l 1
320 307 m 1
 320 205 l 1
 384 205 l 1
 384 307 l 1
 320 307 l 1
384 307 m 1
 384 205 l 1
 448 205 l 1
 448 307 l 1
 384 307 l 1
448 307 m 1
 448 205 l 1
 512 205 l 1
 512 307 l 1
 448 307 l 1
192 205 m 1
 192 102 l 1
 256 102 l 1
 256 205 l 1
 192 205 l 1
256 205 m 1
 256 102 l 1
 320 102 l 1
 320 205 l 1
 256 205 l 1
192 102 m 1
 192 -0 l 1
 256 -0 l 1
 256 102 l 1
 192 102 l 1
256 102 m 1
 256 -0 l 1
 320 -0 l 1
 320 102 l 1
 256 102 l 1
192 -0 m 1
 192 -103 l 1
 256 -103 l 1
 256 -0 l 1
 192 -0 l 1
256 -0 m 1
 256 -103 l 1
 320 -103 l 1
 320 -0 l 1
 256 -0 l 1
192 -103 m 1
 192 -205 l 1
 256 -205 l 1
 256 -103 l 1
 192 -103 l 1
256 -103 m 1
 256 -205 l 1
 320 -205 l 1
 320 -103 l 1
 256 -103 l 1
EndSplineSet
EndChar

StartChar: arrowright
Encoding: 8594 8594 151
Width: 512
Flags: HW
LayerCount: 2
Fore
SplineSet
256 614 m 1
 256 512 l 1
 320 512 l 1
 320 614 l 1
 256 614 l 1
320 512 m 1
 320 409 l 1
 384 409 l 1
 384 512 l 1
 320 512 l 1
128 409 m 1
 128 307 l 1
 192 307 l 1
 192 409 l 1
 128 409 l 1
192 409 m 1
 192 307 l 1
 256 307 l 1
 256 409 l 1
 192 409 l 1
256 409 m 1
 256 307 l 1
 320 307 l 1
 320 409 l 1
 256 409 l 1
320 409 m 1
 320 307 l 1
 384 307 l 1
 384 409 l 1
 320 409 l 1
384 409 m 1
 384 307 l 1
 448 307 l 1
 448 409 l 1
 384 409 l 1
320 307 m 1
 320 205 l 1
 384 205 l 1
 384 307 l 1
 320 307 l 1
256 205 m 1
 256 102 l 1
 320 102 l 1
 320 205 l 1
 256 205 l 1
EndSplineSet
EndChar

StartChar: arrowdown
Encoding: 8595 8595 152
Width: 512
Flags: HW
LayerCount: 2
Fore
SplineSet
256 614 m 1
 256 512 l 1
 320 512 l 1
 320 614 l 1
 256 614 l 1
256 512 m 1
 256 409 l 1
 320 409 l 1
 320 512 l 1
 256 512 l 1
128 409 m 1
 128 307 l 1
 192 307 l 1
 192 409 l 1
 128 409 l 1
256 409 m 1
 256 307 l 1
 320 307 l 1
 320 409 l 1
 256 409 l 1
384 409 m 1
 384 307 l 1
 448 307 l 1
 448 409 l 1
 384 409 l 1
192 307 m 1
 192 205 l 1
 256 205 l 1
 256 307 l 1
 192 307 l 1
256 307 m 1
 256 205 l 1
 320 205 l 1
 320 307 l 1
 256 307 l 1
320 307 m 1
 320 205 l 1
 384 205 l 1
 384 307 l 1
 320 307 l 1
256 205 m 1
 256 102 l 1
 320 102 l 1
 320 205 l 1
 256 205 l 1
EndSplineSet
EndChar

StartChar: shade
Encoding: 9618 9618 153
Width: 512
Flags: HW
LayerCount: 2
Fore
SplineSet
0 819 m 1
 0 717 l 1
 64 717 l 1
 64 819 l 1
 0 819 l 1
128 819 m 1
 128 717 l 1
 192 717 l 1
 192 819 l 1
 128 819 l 1
256 819 m 1
 256 717 l 1
 320 717 l 1
 320 819 l 1
 256 819 l 1
384 819 m 1
 384 717 l 1
 448 717 l 1
 448 819 l 1
 384 819 l 1
64 717 m 1
 64 614 l 1
 128 614 l 1
 128 717 l 1
 64 717 l 1
192 717 m 1
 192 614 l 1
 256 614 l 1
 256 717 l 1
 192 717 l 1
320 717 m 1
 320 614 l 1
 384 614 l 1
 384 717 l 1
 320 717 l 1
448 717 m 1
 448 614 l 1
 512 614 l 1
 512 717 l 1
 448 717 l 1
0 614 m 1
 0 512 l 1
 64 512 l 1
 64 614 l 1
 0 614 l 1
128 614 m 1
 128 512 l 1
 192 512 l 1
 192 614 l 1
 128 614 l 1
256 614 m 1
 256 512 l 1
 320 512 l 1
 320 614 l 1
 256 614 l 1
384 614 m 1
 384 512 l 1
 448 512 l 1
 448 614 l 1
 384 614 l 1
64 512 m 1
 64 409 l 1
 128 409 l 1
 128 512 l 1
 64 512 l 1
192 512 m 1
 192 409 l 1
 256 409 l 1
 256 512 l 1
 192 512 l 1
320 512 m 1
 320 409 l 1
 384 409 l 1
 384 512 l 1
 320 512 l 1
448 512 m 1
 448 409 l 1
 512 409 l 1
 512 512 l 1
 448 512 l 1
0 409 m 1
 0 307 l 1
 64 307 l 1
 64 409 l 1
 0 409 l 1
128 409 m 1
 128 307 l 1
 192 307 l 1
 192 409 l 1
 128 409 l 1
256 409 m 1
 256 307 l 1
 320 307 l 1
 320 409 l 1
 256 409 l 1
384 409 m 1
 384 307 l 1
 448 307 l 1
 448 409 l 1
 384 409 l 1
64 307 m 1
 64 205 l 1
 128 205 l 1
 128 307 l 1
 64 307 l 1
192 307 m 1
 192 205 l 1
 256 205 l 1
 256 307 l 1
 192 307 l 1
320 307 m 1
 320 205 l 1
 384 205 l 1
 384 307 l 1
 320 307 l 1
448 307 m 1
 448 205 l 1
 512 205 l 1
 512 307 l 1
 448 307 l 1
0 205 m 1
 0 102 l 1
 64 102 l 1
 64 205 l 1
 0 205 l 1
128 205 m 1
 128 102 l 1
 192 102 l 1
 192 205 l 1
 128 205 l 1
256 205 m 1
 256 102 l 1
 320 102 l 1
 320 205 l 1
 256 205 l 1
384 205 m 1
 384 102 l 1
 448 102 l 1
 448 205 l 1
 384 205 l 1
64 102 m 1
 64 -0 l 1
 128 -0 l 1
 128 102 l 1
 64 102 l 1
192 102 m 1
 192 -0 l 1
 256 -0 l 1
 256 102 l 1
 192 102 l 1
320 102 m 1
 320 -0 l 1
 384 -0 l 1
 384 102 l 1
 320 102 l 1
448 102 m 1
 448 -0 l 1
 512 -0 l 1
 512 102 l 1
 448 102 l 1
0 -0 m 1
 0 -103 l 1
 64 -103 l 1
 64 -0 l 1
 0 -0 l 1
128 -0 m 1
 128 -103 l 1
 192 -103 l 1
 192 -0 l 1
 128 -0 l 1
256 -0 m 1
 256 -103 l 1
 320 -103 l 1
 320 -0 l 1
 256 -0 l 1
384 -0 m 1
 384 -103 l 1
 448 -103 l 1
 448 -0 l 1
 384 -0 l 1
64 -103 m 1
 64 -205 l 1
 128 -205 l 1
 128 -103 l 1
 64 -103 l 1
192 -103 m 1
 192 -205 l 1
 256 -205 l 1
 256 -103 l 1
 192 -103 l 1
320 -103 m 1
 320 -205 l 1
 384 -205 l 1
 384 -103 l 1
 320 -103 l 1
448 -103 m 1
 448 -205 l 1
 512 -205 l 1
 512 -103 l 1
 448 -103 l 1
EndSplineSet
EndChar

StartChar: uni2597
Encoding: 9623 9623 154
Width: 512
Flags: HW
LayerCount: 2
Fore
SplineSet
256 307 m 1
 256 205 l 1
 320 205 l 1
 320 307 l 1
 256 307 l 1
320 307 m 1
 320 205 l 1
 384 205 l 1
 384 307 l 1
 320 307 l 1
384 307 m 1
 384 205 l 1
 448 205 l 1
 448 307 l 1
 384 307 l 1
448 307 m 1
 448 205 l 1
 512 205 l 1
 512 307 l 1
 448 307 l 1
256 205 m 1
 256 102 l 1
 320 102 l 1
 320 205 l 1
 256 205 l 1
320 205 m 1
 320 102 l 1
 384 102 l 1
 384 205 l 1
 320 205 l 1
384 205 m 1
 384 102 l 1
 448 102 l 1
 448 205 l 1
 384 205 l 1
448 205 m 1
 448 102 l 1
 512 102 l 1
 512 205 l 1
 448 205 l 1
256 102 m 1
 256 -0 l 1
 320 -0 l 1
 320 102 l 1
 256 102 l 1
320 102 m 1
 320 -0 l 1
 384 -0 l 1
 384 102 l 1
 320 102 l 1
384 102 m 1
 384 -0 l 1
 448 -0 l 1
 448 102 l 1
 384 102 l 1
448 102 m 1
 448 -0 l 1
 512 -0 l 1
 512 102 l 1
 448 102 l 1
256 -0 m 1
 256 -103 l 1
 320 -103 l 1
 320 -0 l 1
 256 -0 l 1
320 -0 m 1
 320 -103 l 1
 384 -103 l 1
 384 -0 l 1
 320 -0 l 1
384 -0 m 1
 384 -103 l 1
 448 -103 l 1
 448 -0 l 1
 384 -0 l 1
448 -0 m 1
 448 -103 l 1
 512 -103 l 1
 512 -0 l 1
 448 -0 l 1
256 -103 m 1
 256 -205 l 1
 320 -205 l 1
 320 -103 l 1
 256 -103 l 1
320 -103 m 1
 320 -205 l 1
 384 -205 l 1
 384 -103 l 1
 320 -103 l 1
384 -103 m 1
 384 -205 l 1
 448 -205 l 1
 448 -103 l 1
 384 -103 l 1
448 -103 m 1
 448 -205 l 1
 512 -205 l 1
 512 -103 l 1
 448 -103 l 1
EndSplineSet
EndChar

StartChar: uni2598
Encoding: 9624 9624 155
Width: 512
Flags: HW
LayerCount: 2
Fore
SplineSet
0 819 m 1
 0 717 l 1
 64 717 l 1
 64 819 l 1
 0 819 l 1
64 819 m 1
 64 717 l 1
 128 717 l 1
 128 819 l 1
 64 819 l 1
128 819 m 1
 128 717 l 1
 192 717 l 1
 192 819 l 1
 128 819 l 1
192 819 m 1
 192 717 l 1
 256 717 l 1
 256 819 l 1
 192 819 l 1
0 717 m 1
 0 614 l 1
 64 614 l 1
 64 717 l 1
 0 717 l 1
64 717 m 1
 64 614 l 1
 128 614 l 1
 128 717 l 1
 64 717 l 1
128 717 m 1
 128 614 l 1
 192 614 l 1
 192 717 l 1
 128 717 l 1
192 717 m 1
 192 614 l 1
 256 614 l 1
 256 717 l 1
 192 717 l 1
0 614 m 1
 0 512 l 1
 64 512 l 1
 64 614 l 1
 0 614 l 1
64 614 m 1
 64 512 l 1
 128 512 l 1
 128 614 l 1
 64 614 l 1
128 614 m 1
 128 512 l 1
 192 512 l 1
 192 614 l 1
 128 614 l 1
192 614 m 1
 192 512 l 1
 256 512 l 1
 256 614 l 1
 192 614 l 1
0 512 m 1
 0 409 l 1
 64 409 l 1
 64 512 l 1
 0 512 l 1
64 512 m 1
 64 409 l 1
 128 409 l 1
 128 512 l 1
 64 512 l 1
128 512 m 1
 128 409 l 1
 192 409 l 1
 192 512 l 1
 128 512 l 1
192 512 m 1
 192 409 l 1
 256 409 l 1
 256 512 l 1
 192 512 l 1
0 409 m 1
 0 307 l 1
 64 307 l 1
 64 409 l 1
 0 409 l 1
64 409 m 1
 64 307 l 1
 128 307 l 1
 128 409 l 1
 64 409 l 1
128 409 m 1
 128 307 l 1
 192 307 l 1
 192 409 l 1
 128 409 l 1
192 409 m 1
 192 307 l 1
 256 307 l 1
 256 409 l 1
 192 409 l 1
EndSplineSet
EndChar

StartChar: uni259D
Encoding: 9629 9629 156
Width: 512
Flags: HW
LayerCount: 2
Fore
SplineSet
256 819 m 1
 256 717 l 1
 320 717 l 1
 320 819 l 1
 256 819 l 1
320 819 m 1
 320 717 l 1
 384 717 l 1
 384 819 l 1
 320 819 l 1
384 819 m 1
 384 717 l 1
 448 717 l 1
 448 819 l 1
 384 819 l 1
448 819 m 1
 448 717 l 1
 512 717 l 1
 512 819 l 1
 448 819 l 1
256 717 m 1
 256 614 l 1
 320 614 l 1
 320 717 l 1
 256 717 l 1
320 717 m 1
 320 614 l 1
 384 614 l 1
 384 717 l 1
 320 717 l 1
384 717 m 1
 384 614 l 1
 448 614 l 1
 448 717 l 1
 384 717 l 1
448 717 m 1
 448 614 l 1
 512 614 l 1
 512 717 l 1
 448 717 l 1
256 614 m 1
 256 512 l 1
 320 512 l 1
 320 614 l 1
 256 614 l 1
320 614 m 1
 320 512 l 1
 384 512 l 1
 384 614 l 1
 320 614 l 1
384 614 m 1
 384 512 l 1
 448 512 l 1
 448 614 l 1
 384 614 l 1
448 614 m 1
 448 512 l 1
 512 512 l 1
 512 614 l 1
 448 614 l 1
256 512 m 1
 256 409 l 1
 320 409 l 1
 320 512 l 1
 256 512 l 1
320 512 m 1
 320 409 l 1
 384 409 l 1
 384 512 l 1
 320 512 l 1
384 512 m 1
 384 409 l 1
 448 409 l 1
 448 512 l 1
 384 512 l 1
448 512 m 1
 448 409 l 1
 512 409 l 1
 512 512 l 1
 448 512 l 1
256 409 m 1
 256 307 l 1
 320 307 l 1
 320 409 l 1
 256 409 l 1
320 409 m 1
 320 307 l 1
 384 307 l 1
 384 409 l 1
 320 409 l 1
384 409 m 1
 384 307 l 1
 448 307 l 1
 448 409 l 1
 384 409 l 1
448 409 m 1
 448 307 l 1
 512 307 l 1
 512 409 l 1
 448 409 l 1
EndSplineSet
EndChar

StartChar: uni2596
Encoding: 9622 9622 157
Width: 512
Flags: HW
LayerCount: 2
Fore
SplineSet
0 306.999969 m 1
 0 204.599976 l 1
 64 204.599976 l 1
 64 306.999969 l 1
 0 306.999969 l 1
64 306.999969 m 1
 64 204.599976 l 1
 128 204.599976 l 1
 128 306.999969 l 1
 64 306.999969 l 1
128 306.999969 m 1
 128 204.599976 l 1
 192 204.599976 l 1
 192 306.999969 l 1
 128 306.999969 l 1
192 306.999969 m 1
 192 204.599976 l 1
 256 204.599976 l 1
 256 306.999969 l 1
 192 306.999969 l 1
0 204.599976 m 1
 0 102.199974 l 1
 64 102.199974 l 1
 64 204.599976 l 1
 0 204.599976 l 1
64 204.599976 m 1
 64 102.199974 l 1
 128 102.199974 l 1
 128 204.599976 l 1
 64 204.599976 l 1
128 204.599976 m 1
 128 102.199974 l 1
 192 102.199974 l 1
 192 204.599976 l 1
 128 204.599976 l 1
192 204.599976 m 1
 192 102.199974 l 1
 256 102.199974 l 1
 256 204.599976 l 1
 192 204.599976 l 1
0 102.199974 m 1
 0 -0.200027 l 1
 64 -0.200027 l 1
 64 102.199974 l 1
 0 102.199974 l 1
64 102.199974 m 1
 64 -0.200027 l 1
 128 -0.200027 l 1
 128 102.199974 l 1
 64 102.199974 l 1
128 102.199974 m 1
 128 -0.200027 l 1
 192 -0.200027 l 1
 192 102.199974 l 1
 128 102.199974 l 1
192 102.199974 m 1
 192 -0.200027 l 1
 256 -0.200027 l 1
 256 102.199974 l 1
 192 102.199974 l 1
0 -0.200027 m 1
 0 -102.600029 l 1
 64 -102.600029 l 1
 64 -0.200027 l 1
 0 -0.200027 l 1
64 -0.200027 m 1
 64 -102.600029 l 1
 128 -102.600029 l 1
 128 -0.200027 l 1
 64 -0.200027 l 1
128 -0.200027 m 1
 128 -102.600029 l 1
 192 -102.600029 l 1
 192 -0.200027 l 1
 128 -0.200027 l 1
192 -0.200027 m 1
 192 -102.600029 l 1
 256 -102.600029 l 1
 256 -0.200027 l 1
 192 -0.200027 l 1
0 -102.600029 m 1
 0 -205.000031 l 1
 64 -205.000031 l 1
 64 -102.600029 l 1
 0 -102.600029 l 1
64 -102.600029 m 1
 64 -205.000031 l 1
 128 -205.000031 l 1
 128 -102.600029 l 1
 64 -102.600029 l 1
128 -102.600029 m 1
 128 -205.000031 l 1
 192 -205.000031 l 1
 192 -102.600029 l 1
 128 -102.600029 l 1
192 -102.600029 m 1
 192 -205.000031 l 1
 256 -205.000031 l 1
 256 -102.600029 l 1
 192 -102.600029 l 1
EndSplineSet
EndChar

StartChar: upblock
Encoding: 9600 9600 158
Width: 512
Flags: HW
LayerCount: 2
Fore
SplineSet
0 819 m 1
 0 717 l 1
 64 717 l 1
 64 819 l 1
 0 819 l 1
64 819 m 1
 64 717 l 1
 128 717 l 1
 128 819 l 1
 64 819 l 1
128 819 m 1
 128 717 l 1
 192 717 l 1
 192 819 l 1
 128 819 l 1
192 819 m 1
 192 717 l 1
 256 717 l 1
 256 819 l 1
 192 819 l 1
256 819 m 1
 256 717 l 1
 320 717 l 1
 320 819 l 1
 256 819 l 1
320 819 m 1
 320 717 l 1
 384 717 l 1
 384 819 l 1
 320 819 l 1
384 819 m 1
 384 717 l 1
 448 717 l 1
 448 819 l 1
 384 819 l 1
448 819 m 1
 448 717 l 1
 512 717 l 1
 512 819 l 1
 448 819 l 1
0 717 m 1
 0 614 l 1
 64 614 l 1
 64 717 l 1
 0 717 l 1
64 717 m 1
 64 614 l 1
 128 614 l 1
 128 717 l 1
 64 717 l 1
128 717 m 1
 128 614 l 1
 192 614 l 1
 192 717 l 1
 128 717 l 1
192 717 m 1
 192 614 l 1
 256 614 l 1
 256 717 l 1
 192 717 l 1
256 717 m 1
 256 614 l 1
 320 614 l 1
 320 717 l 1
 256 717 l 1
320 717 m 1
 320 614 l 1
 384 614 l 1
 384 717 l 1
 320 717 l 1
384 717 m 1
 384 614 l 1
 448 614 l 1
 448 717 l 1
 384 717 l 1
448 717 m 1
 448 614 l 1
 512 614 l 1
 512 717 l 1
 448 717 l 1
0 614 m 1
 0 512 l 1
 64 512 l 1
 64 614 l 1
 0 614 l 1
64 614 m 1
 64 512 l 1
 128 512 l 1
 128 614 l 1
 64 614 l 1
128 614 m 1
 128 512 l 1
 192 512 l 1
 192 614 l 1
 128 614 l 1
192 614 m 1
 192 512 l 1
 256 512 l 1
 256 614 l 1
 192 614 l 1
256 614 m 1
 256 512 l 1
 320 512 l 1
 320 614 l 1
 256 614 l 1
320 614 m 1
 320 512 l 1
 384 512 l 1
 384 614 l 1
 320 614 l 1
384 614 m 1
 384 512 l 1
 448 512 l 1
 448 614 l 1
 384 614 l 1
448 614 m 1
 448 512 l 1
 512 512 l 1
 512 614 l 1
 448 614 l 1
0 512 m 1
 0 409 l 1
 64 409 l 1
 64 512 l 1
 0 512 l 1
64 512 m 1
 64 409 l 1
 128 409 l 1
 128 512 l 1
 64 512 l 1
128 512 m 1
 128 409 l 1
 192 409 l 1
 192 512 l 1
 128 512 l 1
192 512 m 1
 192 409 l 1
 256 409 l 1
 256 512 l 1
 192 512 l 1
256 512 m 1
 256 409 l 1
 320 409 l 1
 320 512 l 1
 256 512 l 1
320 512 m 1
 320 409 l 1
 384 409 l 1
 384 512 l 1
 320 512 l 1
384 512 m 1
 384 409 l 1
 448 409 l 1
 448 512 l 1
 384 512 l 1
448 512 m 1
 448 409 l 1
 512 409 l 1
 512 512 l 1
 448 512 l 1
0 409 m 1
 0 307 l 1
 64 307 l 1
 64 409 l 1
 0 409 l 1
64 409 m 1
 64 307 l 1
 128 307 l 1
 128 409 l 1
 64 409 l 1
128 409 m 1
 128 307 l 1
 192 307 l 1
 192 409 l 1
 128 409 l 1
192 409 m 1
 192 307 l 1
 256 307 l 1
 256 409 l 1
 192 409 l 1
256 409 m 1
 256 307 l 1
 320 307 l 1
 320 409 l 1
 256 409 l 1
320 409 m 1
 320 307 l 1
 384 307 l 1
 384 409 l 1
 320 409 l 1
384 409 m 1
 384 307 l 1
 448 307 l 1
 448 409 l 1
 384 409 l 1
448 409 m 1
 448 307 l 1
 512 307 l 1
 512 409 l 1
 448 409 l 1
EndSplineSet
EndChar

StartChar: rtblock
Encoding: 9616 9616 159
Width: 512
Flags: HW
LayerCount: 2
Fore
SplineSet
256 819 m 1
 256 716.599976 l 1
 320 716.599976 l 1
 320 819 l 1
 256 819 l 1
320 819 m 1
 320 716.599976 l 1
 384 716.599976 l 1
 384 819 l 1
 320 819 l 1
384 819 m 1
 384 716.599976 l 1
 448 716.599976 l 1
 448 819 l 1
 384 819 l 1
448 819 m 1
 448 716.599976 l 1
 512 716.599976 l 1
 512 819 l 1
 448 819 l 1
256 716.599976 m 1
 256 614.199951 l 1
 320 614.199951 l 1
 320 716.599976 l 1
 256 716.599976 l 1
320 716.599976 m 1
 320 614.199951 l 1
 384 614.199951 l 1
 384 716.599976 l 1
 320 716.599976 l 1
384 716.599976 m 1
 384 614.199951 l 1
 448 614.199951 l 1
 448 716.599976 l 1
 384 716.599976 l 1
448 716.599976 m 1
 448 614.199951 l 1
 512 614.199951 l 1
 512 716.599976 l 1
 448 716.599976 l 1
256 614.199951 m 1
 256 511.799957 l 1
 320 511.799957 l 1
 320 614.199951 l 1
 256 614.199951 l 1
320 614.199951 m 1
 320 511.799957 l 1
 384 511.799957 l 1
 384 614.199951 l 1
 320 614.199951 l 1
384 614.199951 m 1
 384 511.799957 l 1
 448 511.799957 l 1
 448 614.199951 l 1
 384 614.199951 l 1
448 614.199951 m 1
 448 511.799957 l 1
 512 511.799957 l 1
 512 614.199951 l 1
 448 614.199951 l 1
256 511.799957 m 1
 256 409.399963 l 1
 320 409.399963 l 1
 320 511.799957 l 1
 256 511.799957 l 1
320 511.799957 m 1
 320 409.399963 l 1
 384 409.399963 l 1
 384 511.799957 l 1
 320 511.799957 l 1
384 511.799957 m 1
 384 409.399963 l 1
 448 409.399963 l 1
 448 511.799957 l 1
 384 511.799957 l 1
448 511.799957 m 1
 448 409.399963 l 1
 512 409.399963 l 1
 512 511.799957 l 1
 448 511.799957 l 1
256 409.399963 m 1
 256 306.999969 l 1
 320 306.999969 l 1
 320 409.399963 l 1
 256 409.399963 l 1
320 409.399963 m 1
 320 306.999969 l 1
 384 306.999969 l 1
 384 409.399963 l 1
 320 409.399963 l 1
384 409.399963 m 1
 384 306.999969 l 1
 448 306.999969 l 1
 448 409.399963 l 1
 384 409.399963 l 1
448 409.399963 m 1
 448 306.999969 l 1
 512 306.999969 l 1
 512 409.399963 l 1
 448 409.399963 l 1
256 306.999969 m 1
 256 204.599976 l 1
 320 204.599976 l 1
 320 306.999969 l 1
 256 306.999969 l 1
320 306.999969 m 1
 320 204.599976 l 1
 384 204.599976 l 1
 384 306.999969 l 1
 320 306.999969 l 1
384 306.999969 m 1
 384 204.599976 l 1
 448 204.599976 l 1
 448 306.999969 l 1
 384 306.999969 l 1
448 306.999969 m 1
 448 204.599976 l 1
 512 204.599976 l 1
 512 306.999969 l 1
 448 306.999969 l 1
256 204.599976 m 1
 256 102.199974 l 1
 320 102.199974 l 1
 320 204.599976 l 1
 256 204.599976 l 1
320 204.599976 m 1
 320 102.199974 l 1
 384 102.199974 l 1
 384 204.599976 l 1
 320 204.599976 l 1
384 204.599976 m 1
 384 102.199974 l 1
 448 102.199974 l 1
 448 204.599976 l 1
 384 204.599976 l 1
448 204.599976 m 1
 448 102.199974 l 1
 512 102.199974 l 1
 512 204.599976 l 1
 448 204.599976 l 1
256 102.199974 m 1
 256 -0.200027 l 1
 320 -0.200027 l 1
 320 102.199974 l 1
 256 102.199974 l 1
320 102.199974 m 1
 320 -0.200027 l 1
 384 -0.200027 l 1
 384 102.199974 l 1
 320 102.199974 l 1
384 102.199974 m 1
 384 -0.200027 l 1
 448 -0.200027 l 1
 448 102.199974 l 1
 384 102.199974 l 1
448 102.199974 m 1
 448 -0.200027 l 1
 512 -0.200027 l 1
 512 102.199974 l 1
 448 102.199974 l 1
256 -0.200027 m 1
 256 -102.600029 l 1
 320 -102.600029 l 1
 320 -0.200027 l 1
 256 -0.200027 l 1
320 -0.200027 m 1
 320 -102.600029 l 1
 384 -102.600029 l 1
 384 -0.200027 l 1
 320 -0.200027 l 1
384 -0.200027 m 1
 384 -102.600029 l 1
 448 -102.600029 l 1
 448 -0.200027 l 1
 384 -0.200027 l 1
448 -0.200027 m 1
 448 -102.600029 l 1
 512 -102.600029 l 1
 512 -0.200027 l 1
 448 -0.200027 l 1
256 -102.600029 m 1
 256 -205.000031 l 1
 320 -205.000031 l 1
 320 -102.600029 l 1
 256 -102.600029 l 1
320 -102.600029 m 1
 320 -205.000031 l 1
 384 -205.000031 l 1
 384 -102.600029 l 1
 320 -102.600029 l 1
384 -102.600029 m 1
 384 -205.000031 l 1
 448 -205.000031 l 1
 448 -102.600029 l 1
 384 -102.600029 l 1
448 -102.600029 m 1
 448 -205.000031 l 1
 512 -205.000031 l 1
 512 -102.600029 l 1
 448 -102.600029 l 1
EndSplineSet
EndChar
